<svg xmlns="http://www.w3.org/2000/svg" xmlns:xlink="http://www.w3.org/1999/xlink" width="44.196mm" height="61.874mm" viewBox="4013 2970.5 174 243.6"><title></title><style type="text/css">
*[layerid="1"] {stroke:#FF0000;fill:#FF0000;}
*[layerid="2"] {stroke:#0000FF;fill:#0000FF;}
*[layerid="3"] {stroke:#FFCC00;fill:#FFCC00;}
*[layerid="4"] {stroke:#66CC33;fill:#66CC33;}
*[layerid="5"] {stroke:#808080;fill:#808080;}
*[layerid="6"] {stroke:#800000;fill:#800000;}
*[layerid="7"] {stroke:#800080;fill:#800080;stroke-opacity:0.7;fill-opacity:0.7;}
*[layerid="8"] {stroke:#AA00FF;fill:#AA00FF;stroke-opacity:0.7;fill-opacity:0.7;}
*[layerid="9"] {stroke:#6464FF;fill:#6464FF;}
*[layerid="10"] {stroke:#FF00FF;fill:#FF00FF;}
*[layerid="11"] {stroke:#C0C0C0;fill:#C0C0C0;}
*[layerid="12"] {stroke:#FFFFFF;fill:#FFFFFF;}
*[layerid="13"] {stroke:#33CC99;fill:#33CC99;}
*[layerid="14"] {stroke:#5555FF;fill:#5555FF;}
*[layerid="15"] {stroke:#F022F0;fill:#F022F0;}
*[layerid="21"] {stroke:#800000;fill:#800000;}
*[layerid="22"] {stroke:#008000;fill:#008000;}
*[layerid="23"] {stroke:#00FF00;fill:#00FF00;}
*[layerid="24"] {stroke:#BC8E00;fill:#BC8E00;}
*[layerid="25"] {stroke:#70DBFA;fill:#70DBFA;}
*[layerid="26"] {stroke:#00CC66;fill:#00CC66;}
*[layerid="27"] {stroke:#9966FF;fill:#9966FF;}
*[layerid="28"] {stroke:#800080;fill:#800080;}
*[layerid="29"] {stroke:#008080;fill:#008080;}
*[layerid="30"] {stroke:#15935F;fill:#15935F;}
*[layerid="31"] {stroke:#000080;fill:#000080;}
*[layerid="32"] {stroke:#00B400;fill:#00B400;}
*[layerid="33"] {stroke:#2E4756;fill:#2E4756;}
*[layerid="34"] {stroke:#99842F;fill:#99842F;}
*[layerid="35"] {stroke:#FFFFAA;fill:#FFFFAA;}
*[layerid="36"] {stroke:#99842F;fill:#99842F;}
*[layerid="37"] {stroke:#2E4756;fill:#2E4756;}
*[layerid="38"] {stroke:#3535FF;fill:#3535FF;}
*[layerid="39"] {stroke:#8000BC;fill:#8000BC;}
*[layerid="40"] {stroke:#43AE5F;fill:#43AE5F;}
*[layerid="41"] {stroke:#C3ECCE;fill:#C3ECCE;}
*[layerid="42"] {stroke:#728978;fill:#728978;}
*[layerid="43"] {stroke:#39503F;fill:#39503F;}
*[layerid="44"] {stroke:#0C715D;fill:#0C715D;}
*[layerid="45"] {stroke:#5A8A80;fill:#5A8A80;}
*[layerid="46"] {stroke:#2B937E;fill:#2B937E;}
*[layerid="47"] {stroke:#23999D;fill:#23999D;}
*[layerid="48"] {stroke:#45B4E3;fill:#45B4E3;}
*[layerid="49"] {stroke:#215DA1;fill:#215DA1;}
*[layerid="50"] {stroke:#4564D7;fill:#4564D7;}
*[layerid="51"] {stroke:#6969E9;fill:#6969E9;}
*[layerid="52"] {stroke:#9069E9;fill:#9069E9;}
*[fill="none"] {fill: none;}
*[stroke="none"] {stroke: none;}
path, polyline, polygon, line {stroke-linecap:round;}
g[c_partid="part_pad"][layerid="1"] ellipse:not([c_padid]) {fill:#FF0000;}
g[c_partid="part_pad"][layerid="1"]  polygon:not([c_padid]) {fill:#FF0000;}
g[c_partid="part_pad"][layerid="1"]  polyline:not([c_padid]) {stroke:#FF0000;}
g[c_partid="part_pad"][layerid="1"]  circle {fill:#FF0000;}
g[c_partid="part_pad"][layerid="2"]  ellipse:not([c_padid]) {fill:#0000FF;}
g[c_partid="part_pad"][layerid="2"]  polygon:not([c_padid]) {fill:#0000FF;}
g[c_partid="part_pad"][layerid="2"]  polyline:not([c_padid]) {stroke:#0000FF;}
g[c_partid="part_pad"][layerid="2"]  circle {fill:#0000FF;}
g[c_partid="part_pad"][layerid="11"]  ellipse:not([c_padid]) {fill:#C0C0C0;}
g[c_partid="part_pad"][layerid="11"]  polygon:not([c_padid]) {fill:#C0C0C0;}
g[c_partid="part_pad"][layerid="11"]  polyline:not([c_padid]) {stroke:#C0C0C0;}
g[c_partid="part_pad"][layerid="11"]  circle {fill:#C0C0C0;}
g[c_partid="part_pad"][layerid] > circle[c_padhole] {fill: #222222;}
g[c_partid="part_pad"][layerid] > polyline[c_padhole] {stroke:#222222;}
g[c_partid="part_via"][layerid] > * + circle {fill: #222222;}
g[c_partid="part_pad"] > polygon[c_padid] {stroke-linejoin: miter;stroke-miterlimit: 100;}
g[c_partid="part_hole"] > circle {fill: #222222;}path, polyline, polygon {stroke-linejoin:round;}
rect, circle, ellipse, polyline, line, polygon, path {shape-rendering:crispEdges;}
</style>
<rect x="4013" y="2970.5" width="174" height="243.6" fill="#000000" stroke="none"/><g id="g1" cpara="package`LED-5MM/2.54`" c_transformList="" importFlag="0" xmlns="http://www.w3.org/2000/svg"><polyline points="4060 3035 4058.347 3035 4041.142 3017.795" stroke-width="1.1811" c_shapetype="line" stroke-linecap="round" fill="none" layerid="1" net="U2_5" id="gge3" /><polyline points="4070 3035 4070 3028.937 4058.858 3017.795" stroke-width="1.1811" c_shapetype="line" stroke-linecap="round" fill="none" layerid="1" net="U2_4" id="gge4" /><polyline points="4158.858 3017.795 4158.858 3026.142 4150 3035" stroke-width="1.1811" c_shapetype="line" stroke-linecap="round" fill="none" layerid="1" net="U1_4" id="gge5" /><polyline points="4050 3100 4050 3065" stroke-width="1.1811" c_shapetype="line" stroke-linecap="round" fill="none" layerid="1" net="U2_1" id="gge6" /><polyline points="4141.142 3017.795 4141.142 3033.858 4140 3035" stroke-width="1.1811" c_shapetype="line" stroke-linecap="round" fill="none" layerid="1" net="U1_5" id="gge7" /><polyline points="4150 3080 4155 3085 4155 3100" stroke-width="1.1811" c_shapetype="line" stroke-linecap="round" fill="none" layerid="1" net="R1_1" id="gge8" /><polyline points="4080 3080 4080 3100" stroke-width="1.1811" c_shapetype="line" stroke-linecap="round" fill="none" layerid="1" net="R2_1" id="gge9" /><polyline points="4058.858 2992.205 4090 3023.347 4090 3030" stroke-width="1.1811" c_shapetype="line" stroke-linecap="round" fill="none" layerid="1" net="KEY2_1" id="gge10" /><polyline points="4041.142 2992.205 4042.205 2992.205 4080 3030" stroke-width="1.1811" c_shapetype="line" stroke-linecap="round" fill="none" layerid="1" net="KEY2_3" id="gge11" /><polyline points="4110 3030 4110 3023.347 4141.142 2992.205" stroke-width="1.1811" c_shapetype="line" stroke-linecap="round" fill="none" layerid="1" net="KEY1_3" id="gge12" /><polyline points="4158.858 2992.205 4121.063 3030 4120 3030" stroke-width="1.1811" c_shapetype="line" stroke-linecap="round" fill="none" layerid="1" net="KEY1_1" id="gge13" /><polyline points="4140 3145 4140 3160" stroke-width="1.1811" c_shapetype="line" stroke-linecap="round" fill="none" layerid="1" net="R3_1" id="gge14" /><polyline points="4100 3145 4100 3160" stroke-width="1.1811" c_shapetype="line" stroke-linecap="round" fill="none" layerid="1" net="R4_1" id="gge15" /><polyline points="4130 3065 4125 3070 4125 3100" stroke-width="1.1811" c_shapetype="line" stroke-linecap="round" fill="none" layerid="1" net="U1_1" id="gge18" /><polyline points="4060 3115 4051.142 3123.858 4051.142 3172.205" stroke-width="1.1811" c_shapetype="line" stroke-linecap="round" fill="none" layerid="1" net="R6_2" id="gge19" /><polyline points="4060 3145 4060 3160" stroke-width="1.1811" c_shapetype="line" stroke-linecap="round" fill="none" layerid="1" net="R6_1" id="gge20" /><polyline points="4068.858 3172.205 4068.858 3171.142 4080 3160" stroke-width="1.1811" c_shapetype="line" stroke-linecap="round" fill="none" layerid="1" net="KEY3_4" id="gge21" /><polyline points="4080 3160 4080 3145" stroke-width="1.1811" c_shapetype="line" stroke-linecap="round" fill="none" layerid="1" net="KEY3_4" id="gge22" /><polyline points="4100 3115 4115 3130 4115 3157.5 4115 3165 4100 3180" stroke-width="1.1811" c_shapetype="line" stroke-linecap="round" fill="none" layerid="1" net="R4_2" id="gge298" /><polyline points="4140 3115 4125 3130 4125 3162.5 4125 3165 4140 3180" stroke-width="1.1811" c_shapetype="line" stroke-linecap="round" fill="none" layerid="1" net="R3_2" id="gge299" /><g c_partid="part_pcbtext" c_origin="4088.64,2988.61" c_rotation="0" c_mirror="" id="gge301" layerid="1" c_shapetype="group" ><path c_fontSize="8" c_fontFamily="" c_text="-" d="M 4088.6428 2984.9128 L 4095.1928 2984.9128" fill="none"  stroke-width="0.8"  /></g><g c_partid="part_pcbtext" c_origin="4073.64,2988.61" c_rotation="0" c_mirror="" id="gge305" layerid="1" c_shapetype="group" ><path c_fontSize="8" c_fontFamily="" c_text="+" d="M 4076.9128 2981.6428 L 4076.9128 2988.1828 M 4073.6428 2984.9128 L 4080.1928 2984.9128" fill="none"  stroke-width="0.8"  /></g><g c_partid="part_pcbtext" c_origin="4118.64,2988.61" c_rotation="0" c_mirror="" id="gge307" layerid="1" c_shapetype="group" ><path c_fontSize="8" c_fontFamily="" c_text="-" d="M 4118.6428 2984.9128 L 4125.1928 2984.9128" fill="none"  stroke-width="0.8"  /></g><g c_partid="part_pcbtext" c_origin="4103.64,2988.61" c_rotation="0" c_mirror="" id="gge309" layerid="1" c_shapetype="group" ><path c_fontSize="8" c_fontFamily="" c_text="+" d="M 4106.9128 2981.6428 L 4106.9128 2988.1828 M 4103.6428 2984.9128 L 4110.1928 2984.9128" fill="none"  stroke-width="0.8"  /></g><g c_partid="part_pad" c_etype="pinpart" c_origin="4155,3100" layerid="11" number="1" net="R1_1" plated ="Y" c_shapetype="group" id="gge34" locked="0" c_rotation="180" c_width="7.4" c_height="7.4" title="R1_1" c_shape="ELLIPSE" pasteExpansion="0" solderExpansion="0.4"><ellipse cx="4155" cy="3100" rx="3.7" ry="3.7" stroke-width="0" /><circle c_padhole="1" cx="4155" cy="3100" r="1.77" stroke-width="0" /></g><g c_partid="part_pad" c_etype="pinpart" c_origin="4125,3100" layerid="11" number="2" net="U1_1" plated ="Y" c_shapetype="group" id="gge35" locked="0" c_rotation="180" c_width="7.4" c_height="7.4" title="U1_1" c_shape="ELLIPSE" pasteExpansion="0" solderExpansion="0.4"><ellipse cx="4125" cy="3100" rx="3.7" ry="3.7" stroke-width="0" /><circle c_padhole="1" cx="4125" cy="3100" r="1.77" stroke-width="0" /></g><g c_partid="part_pad" c_etype="pinpart" c_origin="4080,3100" layerid="11" number="1" net="R2_1" plated ="Y" c_shapetype="group" id="gge47" locked="0" c_rotation="180" c_width="7.4" c_height="7.4" title="R2_1" c_shape="ELLIPSE" pasteExpansion="0" solderExpansion="0.4"><ellipse cx="4080" cy="3100" rx="3.7" ry="3.7" stroke-width="0" /><circle c_padhole="1" cx="4080" cy="3100" r="1.77" stroke-width="0" /></g><g c_partid="part_pad" c_etype="pinpart" c_origin="4050,3100" layerid="11" number="2" net="U2_1" plated ="Y" c_shapetype="group" id="gge48" locked="0" c_rotation="180" c_width="7.4" c_height="7.4" title="U2_1" c_shape="ELLIPSE" pasteExpansion="0" solderExpansion="0.4"><ellipse cx="4050" cy="3100" rx="3.7" ry="3.7" stroke-width="0" /><circle c_padhole="1" cx="4050" cy="3100" r="1.77" stroke-width="0" /></g><g c_partid="part_pad" c_etype="pinpart" c_origin="4140,3145" layerid="11" number="1" net="R3_1" plated ="Y" c_shapetype="group" id="gge60" locked="0" c_rotation="90" c_width="7.4" c_height="7.4" title="R3_1" c_shape="ELLIPSE" pasteExpansion="0" solderExpansion="0.4"><ellipse cx="4140" cy="3145" rx="3.7" ry="3.7" stroke-width="0" /><circle c_padhole="1" cx="4140" cy="3145" r="1.77" stroke-width="0" /></g><g c_partid="part_pad" c_etype="pinpart" c_origin="4140,3115" layerid="11" number="2" net="R3_2" plated ="Y" c_shapetype="group" id="gge61" locked="0" c_rotation="90" c_width="7.4" c_height="7.4" title="R3_2" c_shape="ELLIPSE" pasteExpansion="0" solderExpansion="0.4"><ellipse cx="4140" cy="3115" rx="3.7" ry="3.7" stroke-width="0" /><circle c_padhole="1" cx="4140" cy="3115" r="1.77" stroke-width="0" /></g><g c_partid="part_pad" c_etype="pinpart" c_origin="4051.14,3172.21" layerid="11" number="2" net="R6_2" plated ="Y" c_shapetype="group" id="gge68" locked="0" c_rotation="270" c_width="7.874" c_height="7.874" title="R6_2" c_shape="ELLIPSE" pasteExpansion="0" solderExpansion="0.4"><ellipse cx="4051.14" cy="3172.21" rx="3.937" ry="3.937" stroke-width="0" /><circle c_padhole="1" cx="4051.142" cy="3172.205" r="2.362" stroke-width="0" /></g><g c_partid="part_pad" c_etype="pinpart" c_origin="4051.14,3197.8" layerid="11" number="1" net="KEY3_1" plated ="Y" c_shapetype="group" id="gge69" locked="0" c_rotation="270" c_width="7.874" c_height="7.874" title="KEY3_1" c_shape="ELLIPSE" pasteExpansion="0" solderExpansion="0.4"><ellipse cx="4051.14" cy="3197.8" rx="3.937" ry="3.937" stroke-width="0" /><circle c_padhole="1" cx="4051.142" cy="3197.795" r="2.362" stroke-width="0" /></g><g c_partid="part_pad" c_etype="pinpart" c_origin="4068.86,3197.8" layerid="11" number="3" net="KEY3_3" plated ="Y" c_shapetype="group" id="gge70" locked="0" c_rotation="270" c_width="7.874" c_height="7.874" title="KEY3_3" c_shape="ELLIPSE" pasteExpansion="0" solderExpansion="0.4"><ellipse cx="4068.86" cy="3197.8" rx="3.937" ry="3.937" stroke-width="0" /><circle c_padhole="1" cx="4068.858" cy="3197.795" r="2.362" stroke-width="0" /></g><g c_partid="part_pad" c_etype="pinpart" c_origin="4068.86,3172.21" layerid="11" number="4" net="KEY3_4" plated ="Y" c_shapetype="group" id="gge71" locked="0" c_rotation="270" c_width="7.874" c_height="7.874" title="KEY3_4" c_shape="ELLIPSE" pasteExpansion="0" solderExpansion="0.4"><ellipse cx="4068.86" cy="3172.21" rx="3.937" ry="3.937" stroke-width="0" /><circle c_padhole="1" cx="4068.858" cy="3172.205" r="2.362" stroke-width="0" /></g><g c_partid="part_pad" c_etype="pinpart" c_origin="4058.86,3017.8" layerid="11" number="2" net="U2_4" plated ="Y" c_shapetype="group" id="gge78" locked="0" c_rotation="90" c_width="7.874" c_height="7.874" title="U2_4" c_shape="ELLIPSE" pasteExpansion="0" solderExpansion="0.4"><ellipse cx="4058.86" cy="3017.8" rx="3.937" ry="3.937" stroke-width="0" /><circle c_padhole="1" cx="4058.858" cy="3017.795" r="2.362" stroke-width="0" /></g><g c_partid="part_pad" c_etype="pinpart" c_origin="4058.86,2992.21" layerid="11" number="1" net="KEY2_1" plated ="Y" c_shapetype="group" id="gge79" locked="0" c_rotation="90" c_width="7.874" c_height="7.874" title="KEY2_1" c_shape="ELLIPSE" pasteExpansion="0" solderExpansion="0.4"><ellipse cx="4058.86" cy="2992.21" rx="3.937" ry="3.937" stroke-width="0" /><circle c_padhole="1" cx="4058.858" cy="2992.205" r="2.362" stroke-width="0" /></g><g c_partid="part_pad" c_etype="pinpart" c_origin="4041.14,2992.21" layerid="11" number="3" net="KEY2_3" plated ="Y" c_shapetype="group" id="gge80" locked="0" c_rotation="90" c_width="7.874" c_height="7.874" title="KEY2_3" c_shape="ELLIPSE" pasteExpansion="0" solderExpansion="0.4"><ellipse cx="4041.14" cy="2992.21" rx="3.937" ry="3.937" stroke-width="0" /><circle c_padhole="1" cx="4041.142" cy="2992.205" r="2.362" stroke-width="0" /></g><g c_partid="part_pad" c_etype="pinpart" c_origin="4041.14,3017.8" layerid="11" number="4" net="U2_5" plated ="Y" c_shapetype="group" id="gge81" locked="0" c_rotation="90" c_width="7.874" c_height="7.874" title="U2_5" c_shape="ELLIPSE" pasteExpansion="0" solderExpansion="0.4"><ellipse cx="4041.14" cy="3017.8" rx="3.937" ry="3.937" stroke-width="0" /><circle c_padhole="1" cx="4041.142" cy="3017.795" r="2.362" stroke-width="0" /></g><g c_partid="part_pad" c_etype="pinpart" c_origin="4158.86,3017.8" layerid="11" number="2" net="U1_4" plated ="Y" c_shapetype="group" id="gge88" locked="0" c_rotation="90" c_width="7.874" c_height="7.874" title="U1_4" c_shape="ELLIPSE" pasteExpansion="0" solderExpansion="0.4"><ellipse cx="4158.86" cy="3017.8" rx="3.937" ry="3.937" stroke-width="0" /><circle c_padhole="1" cx="4158.858" cy="3017.795" r="2.362" stroke-width="0" /></g><g c_partid="part_pad" c_etype="pinpart" c_origin="4158.86,2992.21" layerid="11" number="1" net="KEY1_1" plated ="Y" c_shapetype="group" id="gge89" locked="0" c_rotation="90" c_width="7.874" c_height="7.874" title="KEY1_1" c_shape="ELLIPSE" pasteExpansion="0" solderExpansion="0.4"><ellipse cx="4158.86" cy="2992.21" rx="3.937" ry="3.937" stroke-width="0" /><circle c_padhole="1" cx="4158.858" cy="2992.205" r="2.362" stroke-width="0" /></g><g c_partid="part_pad" c_etype="pinpart" c_origin="4141.14,2992.21" layerid="11" number="3" net="KEY1_3" plated ="Y" c_shapetype="group" id="gge90" locked="0" c_rotation="90" c_width="7.874" c_height="7.874" title="KEY1_3" c_shape="ELLIPSE" pasteExpansion="0" solderExpansion="0.4"><ellipse cx="4141.14" cy="2992.21" rx="3.937" ry="3.937" stroke-width="0" /><circle c_padhole="1" cx="4141.142" cy="2992.205" r="2.362" stroke-width="0" /></g><g c_partid="part_pad" c_etype="pinpart" c_origin="4141.14,3017.8" layerid="11" number="4" net="U1_5" plated ="Y" c_shapetype="group" id="gge91" locked="0" c_rotation="90" c_width="7.874" c_height="7.874" title="U1_5" c_shape="ELLIPSE" pasteExpansion="0" solderExpansion="0.4"><ellipse cx="4141.14" cy="3017.8" rx="3.937" ry="3.937" stroke-width="0" /><circle c_padhole="1" cx="4141.142" cy="3017.795" r="2.362" stroke-width="0" /></g><g c_partid="part_pad" c_etype="pinpart" c_origin="4090,3030" layerid="11" number="1" net="KEY2_1" plated ="Y" c_shapetype="group" id="gge99" locked="0" c_rotation="180" c_width="7.4803" c_height="7.4803" title="KEY2_1" c_shape="RECT" pasteExpansion="0" solderExpansion="0.4"><polygon points="4093.74 3033.74 4086.26 3033.74 4086.26 3026.26 4093.74 3026.26" stroke-width="0" /><circle c_padhole="1" cx="4090" cy="3030" r="2.5591" stroke-width="0" /></g><g c_partid="part_pad" c_etype="pinpart" c_origin="4080,3030" layerid="11" number="2" net="KEY2_3" plated ="Y" c_shapetype="group" id="gge100" locked="0" c_rotation="180" c_width="7.4803" c_height="7.4803" title="KEY2_3" c_shape="ELLIPSE" pasteExpansion="0" solderExpansion="0.4"><ellipse cx="4080" cy="3030" rx="3.74015" ry="3.74015" stroke-width="0" /><circle c_padhole="1" cx="4080" cy="3030" r="2.5591" stroke-width="0" /></g><g c_partid="part_pad" c_etype="pinpart" c_origin="4120,3030" layerid="11" number="1" net="KEY1_1" plated ="Y" c_shapetype="group" id="gge108" locked="0" c_rotation="180" c_width="7.4803" c_height="7.4803" title="KEY1_1" c_shape="RECT" pasteExpansion="0" solderExpansion="0.4"><polygon points="4123.74 3033.74 4116.26 3033.74 4116.26 3026.26 4123.74 3026.26" stroke-width="0" /><circle c_padhole="1" cx="4120" cy="3030" r="2.5591" stroke-width="0" /></g><g c_partid="part_pad" c_etype="pinpart" c_origin="4110,3030" layerid="11" number="2" net="KEY1_3" plated ="Y" c_shapetype="group" id="gge109" locked="0" c_rotation="180" c_width="7.4803" c_height="7.4803" title="KEY1_3" c_shape="ELLIPSE" pasteExpansion="0" solderExpansion="0.4"><ellipse cx="4110" cy="3030" rx="3.74015" ry="3.74015" stroke-width="0" /><circle c_padhole="1" cx="4110" cy="3030" r="2.5591" stroke-width="0" /></g><g c_partid="part_pad" c_etype="pinpart" c_origin="4100,3145" layerid="11" number="1" net="R4_1" plated ="Y" c_shapetype="group" id="gge121" locked="0" c_rotation="90" c_width="7.4" c_height="7.4" title="R4_1" c_shape="ELLIPSE" pasteExpansion="0" solderExpansion="0.4"><ellipse cx="4100" cy="3145" rx="3.7" ry="3.7" stroke-width="0" /><circle c_padhole="1" cx="4100" cy="3145" r="1.77" stroke-width="0" /></g><g c_partid="part_pad" c_etype="pinpart" c_origin="4100,3115" layerid="11" number="2" net="R4_2" plated ="Y" c_shapetype="group" id="gge122" locked="0" c_rotation="90" c_width="7.4" c_height="7.4" title="R4_2" c_shape="ELLIPSE" pasteExpansion="0" solderExpansion="0.4"><ellipse cx="4100" cy="3115" rx="3.7" ry="3.7" stroke-width="0" /><circle c_padhole="1" cx="4100" cy="3115" r="1.77" stroke-width="0" /></g><g c_partid="part_pad" c_etype="pinpart" c_origin="4080,3145" layerid="11" number="1" net="KEY3_4" plated ="Y" c_shapetype="group" id="gge134" locked="0" c_rotation="90" c_width="7.4" c_height="7.4" title="KEY3_4" c_shape="ELLIPSE" pasteExpansion="0" solderExpansion="0.4"><ellipse cx="4080" cy="3145" rx="3.7" ry="3.7" stroke-width="0" /><circle c_padhole="1" cx="4080" cy="3145" r="1.77" stroke-width="0" /></g><g c_partid="part_pad" c_etype="pinpart" c_origin="4080,3115" layerid="11" number="2" net="GND" plated ="Y" c_shapetype="group" id="gge135" locked="0" c_rotation="90" c_width="7.4" c_height="7.4" title="GND" c_shape="ELLIPSE" pasteExpansion="0" solderExpansion="0.4"><ellipse cx="4080" cy="3115" rx="3.7" ry="3.7" stroke-width="0" /><circle c_padhole="1" cx="4080" cy="3115" r="1.77" stroke-width="0" /></g><g c_partid="part_pad" c_etype="pinpart" c_origin="4060,3145" layerid="11" number="1" net="R6_1" plated ="Y" c_shapetype="group" id="gge147" locked="0" c_rotation="90" c_width="7.4" c_height="7.4" title="R6_1" c_shape="ELLIPSE" pasteExpansion="0" solderExpansion="0.4"><ellipse cx="4060" cy="3145" rx="3.7" ry="3.7" stroke-width="0" /><circle c_padhole="1" cx="4060" cy="3145" r="1.77" stroke-width="0" /></g><g c_partid="part_pad" c_etype="pinpart" c_origin="4060,3115" layerid="11" number="2" net="R6_2" plated ="Y" c_shapetype="group" id="gge148" locked="0" c_rotation="90" c_width="7.4" c_height="7.4" title="R6_2" c_shape="ELLIPSE" pasteExpansion="0" solderExpansion="0.4"><ellipse cx="4060" cy="3115" rx="3.7" ry="3.7" stroke-width="0" /><circle c_padhole="1" cx="4060" cy="3115" r="1.77" stroke-width="0" /></g><g c_partid="part_pad" c_etype="pinpart" c_origin="4060,3160" layerid="11" number="1" net="R6_1" plated ="Y" c_shapetype="group" id="gge155" locked="0" c_rotation="0" c_width="6.299" c_height="6.299" title="R6_1" c_shape="ELLIPSE" pasteExpansion="0" solderExpansion="0.4"><ellipse cx="4060" cy="3160" rx="3.1495" ry="3.1495" stroke-width="0" /><polyline c_padhole="1" points="4059.99 3160 4060.01 3160" stroke-width="4.016"></polyline></g><g c_partid="part_pad" c_etype="pinpart" c_origin="4070,3160" layerid="11" number="2" net="GND" plated ="Y" c_shapetype="group" id="gge156" locked="0" c_rotation="0" c_width="6.299" c_height="6.299" title="GND" c_shape="ELLIPSE" pasteExpansion="0" solderExpansion="0.4"><ellipse cx="4070" cy="3160" rx="3.1495" ry="3.1495" stroke-width="0" /><polyline c_padhole="1" points="4069.99 3160 4070.01 3160" stroke-width="4.016"></polyline></g><g c_partid="part_pad" c_etype="pinpart" c_origin="4080,3160" layerid="11" number="3" net="KEY3_4" plated ="Y" c_shapetype="group" id="gge157" locked="0" c_rotation="0" c_width="6.299" c_height="6.299" title="KEY3_4" c_shape="ELLIPSE" pasteExpansion="0" solderExpansion="0.4"><ellipse cx="4080" cy="3160" rx="3.1495" ry="3.1495" stroke-width="0" /><polyline c_padhole="1" points="4079.99 3160 4080.01 3160" stroke-width="4.016"></polyline></g><g c_partid="part_pad" c_etype="pinpart" c_origin="4090,3160" layerid="11" number="4" net="U3_4" plated ="Y" c_shapetype="group" id="gge158" locked="0" c_rotation="0" c_width="6.299" c_height="6.299" title="U3_4" c_shape="ELLIPSE" pasteExpansion="0" solderExpansion="0.4"><ellipse cx="4090" cy="3160" rx="3.1495" ry="3.1495" stroke-width="0" /><polyline c_padhole="1" points="4089.99 3160 4090.01 3160" stroke-width="4.016"></polyline></g><g c_partid="part_pad" c_etype="pinpart" c_origin="4100,3160" layerid="11" number="5" net="R4_1" plated ="Y" c_shapetype="group" id="gge159" locked="0" c_rotation="0" c_width="6.299" c_height="6.299" title="R4_1" c_shape="ELLIPSE" pasteExpansion="0" solderExpansion="0.4"><ellipse cx="4100" cy="3160" rx="3.1495" ry="3.1495" stroke-width="0" /><polyline c_padhole="1" points="4099.99 3160 4100.01 3160" stroke-width="4.016"></polyline></g><g c_partid="part_pad" c_etype="pinpart" c_origin="4110,3160" layerid="11" number="6" net="U3_6" plated ="N" c_shapetype="group" id="gge160" locked="0" c_rotation="0" c_width="6.299" c_height="6.299" title="U3_6" c_shape="ELLIPSE" pasteExpansion="0" solderExpansion="0.4"><ellipse cx="4110" cy="3160" rx="3.1495" ry="3.1495" stroke-width="0" /><polyline c_padhole="1" points="4109.99 3160 4110.01 3160" stroke-width="4.016"></polyline></g><g c_partid="part_pad" c_etype="pinpart" c_origin="4120,3160" layerid="11" number="7" net="U3_7" plated ="N" c_shapetype="group" id="gge161" locked="0" c_rotation="0" c_width="6.299" c_height="6.299" title="U3_7" c_shape="ELLIPSE" pasteExpansion="0" solderExpansion="0.4"><ellipse cx="4120" cy="3160" rx="3.1495" ry="3.1495" stroke-width="0" /><polyline c_padhole="1" points="4119.99 3160 4120.01 3160" stroke-width="4.016"></polyline></g><g c_partid="part_pad" c_etype="pinpart" c_origin="4130,3160" layerid="11" number="8" net="U3_8" plated ="N" c_shapetype="group" id="gge162" locked="0" c_rotation="0" c_width="6.299" c_height="6.299" title="U3_8" c_shape="ELLIPSE" pasteExpansion="0" solderExpansion="0.4"><ellipse cx="4130" cy="3160" rx="3.1495" ry="3.1495" stroke-width="0" /><polyline c_padhole="1" points="4129.99 3160 4130.01 3160" stroke-width="4.016"></polyline></g><g c_partid="part_pad" c_etype="pinpart" c_origin="4140,3160" layerid="11" number="9" net="R3_1" plated ="Y" c_shapetype="group" id="gge163" locked="0" c_rotation="0" c_width="6.299" c_height="6.299" title="R3_1" c_shape="ELLIPSE" pasteExpansion="0" solderExpansion="0.4"><ellipse cx="4140" cy="3160" rx="3.1495" ry="3.1495" stroke-width="0" /><polyline c_padhole="1" points="4139.99 3160 4140.01 3160" stroke-width="4.016"></polyline></g><g c_partid="part_pad" c_etype="pinpart" c_origin="4150,3160" layerid="11" number="10" net="U3_10" plated ="Y" c_shapetype="group" id="gge164" locked="0" c_rotation="0" c_width="6.299" c_height="6.299" title="U3_10" c_shape="ELLIPSE" pasteExpansion="0" solderExpansion="0.4"><ellipse cx="4150" cy="3160" rx="3.1495" ry="3.1495" stroke-width="0" /><polyline c_padhole="1" points="4149.99 3160 4150.01 3160" stroke-width="4.016"></polyline></g><g c_partid="part_pad" c_etype="pinpart" c_origin="4150,3080" layerid="11" number="11" net="R1_1" plated ="Y" c_shapetype="group" id="gge165" locked="0" c_rotation="0" c_width="6.299" c_height="6.299" title="R1_1" c_shape="ELLIPSE" pasteExpansion="0" solderExpansion="0.4"><ellipse cx="4150" cy="3080" rx="3.1495" ry="3.1495" stroke-width="0" /><polyline c_padhole="1" points="4149.99 3080 4150.01 3080" stroke-width="4.016"></polyline></g><g c_partid="part_pad" c_etype="pinpart" c_origin="4140,3080" layerid="11" number="12" net="U3_12" plated ="Y" c_shapetype="group" id="gge166" locked="0" c_rotation="0" c_width="6.299" c_height="6.299" title="U3_12" c_shape="ELLIPSE" pasteExpansion="0" solderExpansion="0.4"><ellipse cx="4140" cy="3080" rx="3.1495" ry="3.1495" stroke-width="0" /><polyline c_padhole="1" points="4139.99 3080 4140.01 3080" stroke-width="4.016"></polyline></g><g c_partid="part_pad" c_etype="pinpart" c_origin="4130,3080" layerid="11" number="13" net="U3_13" plated ="N" c_shapetype="group" id="gge167" locked="0" c_rotation="0" c_width="6.299" c_height="6.299" title="U3_13" c_shape="ELLIPSE" pasteExpansion="0" solderExpansion="0.4"><ellipse cx="4130" cy="3080" rx="3.1495" ry="3.1495" stroke-width="0" /><polyline c_padhole="1" points="4129.99 3080 4130.01 3080" stroke-width="4.016"></polyline></g><g c_partid="part_pad" c_etype="pinpart" c_origin="4120,3080" layerid="11" number="14" net="U3_14" plated ="N" c_shapetype="group" id="gge168" locked="0" c_rotation="0" c_width="6.299" c_height="6.299" title="U3_14" c_shape="ELLIPSE" pasteExpansion="0" solderExpansion="0.4"><ellipse cx="4120" cy="3080" rx="3.1495" ry="3.1495" stroke-width="0" /><polyline c_padhole="1" points="4119.99 3080 4120.01 3080" stroke-width="4.016"></polyline></g><g c_partid="part_pad" c_etype="pinpart" c_origin="4110,3080" layerid="11" number="15" net="U3_15" plated ="Y" c_shapetype="group" id="gge169" locked="0" c_rotation="0" c_width="6.299" c_height="6.299" title="U3_15" c_shape="ELLIPSE" pasteExpansion="0" solderExpansion="0.4"><ellipse cx="4110" cy="3080" rx="3.1495" ry="3.1495" stroke-width="0" /><polyline c_padhole="1" points="4109.99 3080 4110.01 3080" stroke-width="4.016"></polyline></g><g c_partid="part_pad" c_etype="pinpart" c_origin="4100,3080" layerid="11" number="16" net="U3_16" plated ="Y" c_shapetype="group" id="gge170" locked="0" c_rotation="0" c_width="6.299" c_height="6.299" title="U3_16" c_shape="ELLIPSE" pasteExpansion="0" solderExpansion="0.4"><ellipse cx="4100" cy="3080" rx="3.1495" ry="3.1495" stroke-width="0" /><polyline c_padhole="1" points="4099.99 3080 4100.01 3080" stroke-width="4.016"></polyline></g><g c_partid="part_pad" c_etype="pinpart" c_origin="4090,3080" layerid="11" number="17" net="U3_17" plated ="Y" c_shapetype="group" id="gge171" locked="0" c_rotation="0" c_width="6.299" c_height="6.299" title="U3_17" c_shape="ELLIPSE" pasteExpansion="0" solderExpansion="0.4"><ellipse cx="4090" cy="3080" rx="3.1495" ry="3.1495" stroke-width="0" /><polyline c_padhole="1" points="4089.99 3080 4090.01 3080" stroke-width="4.016"></polyline></g><g c_partid="part_pad" c_etype="pinpart" c_origin="4080,3080" layerid="11" number="18" net="R2_1" plated ="Y" c_shapetype="group" id="gge172" locked="0" c_rotation="0" c_width="6.299" c_height="6.299" title="R2_1" c_shape="ELLIPSE" pasteExpansion="0" solderExpansion="0.4"><ellipse cx="4080" cy="3080" rx="3.1495" ry="3.1495" stroke-width="0" /><polyline c_padhole="1" points="4079.99 3080 4080.01 3080" stroke-width="4.016"></polyline></g><g c_partid="part_pad" c_etype="pinpart" c_origin="4070,3080" layerid="11" number="19" net="U3_19" plated ="Y" c_shapetype="group" id="gge173" locked="0" c_rotation="0" c_width="6.299" c_height="6.299" title="U3_19" c_shape="ELLIPSE" pasteExpansion="0" solderExpansion="0.4"><ellipse cx="4070" cy="3080" rx="3.1495" ry="3.1495" stroke-width="0" /><polyline c_padhole="1" points="4069.99 3080 4070.01 3080" stroke-width="4.016"></polyline></g><g c_partid="part_pad" c_etype="pinpart" c_origin="4060,3080" layerid="11" number="20" net="U3_20" plated ="Y" c_shapetype="group" id="gge174" locked="0" c_rotation="0" c_width="6.299" c_height="6.299" title="U3_20" c_shape="ELLIPSE" pasteExpansion="0" solderExpansion="0.4"><ellipse cx="4060" cy="3080" rx="3.1495" ry="3.1495" stroke-width="0" /><polyline c_padhole="1" points="4059.99 3080 4060.01 3080" stroke-width="4.016"></polyline></g><g c_partid="part_pad" c_etype="pinpart" c_origin="4035.35,3085" layerid="11" number="21" net="" plated ="Y" c_shapetype="group" id="gge175" locked="0" c_rotation="0" c_width="14.961" c_height="14.961" title="" c_shape="ELLIPSE" pasteExpansion="0" solderExpansion="0.4"><ellipse cx="4035.35" cy="3085" rx="7.4805" ry="7.4805" stroke-width="0" /><polyline c_padhole="1" points="4035.337 3085 4035.357 3085" stroke-width="10"></polyline></g><g c_partid="part_pad" c_etype="pinpart" c_origin="4035.35,3155" layerid="11" number="22" net="" plated ="Y" c_shapetype="group" id="gge176" locked="0" c_rotation="0" c_width="14.961" c_height="14.961" title="" c_shape="ELLIPSE" pasteExpansion="0" solderExpansion="0.4"><ellipse cx="4035.35" cy="3155" rx="7.4805" ry="7.4805" stroke-width="0" /><polyline c_padhole="1" points="4035.337 3155 4035.357 3155" stroke-width="10"></polyline></g><g c_partid="part_pad" c_etype="pinpart" c_origin="4165.35,3155" layerid="11" number="23" net="" plated ="Y" c_shapetype="group" id="gge177" locked="0" c_rotation="0" c_width="14.961" c_height="14.961" title="" c_shape="ELLIPSE" pasteExpansion="0" solderExpansion="0.4"><ellipse cx="4165.35" cy="3155" rx="7.4805" ry="7.4805" stroke-width="0" /><polyline c_padhole="1" points="4165.336 3155 4165.356 3155" stroke-width="10"></polyline></g><g c_partid="part_pad" c_etype="pinpart" c_origin="4165.35,3085" layerid="11" number="24" net="" plated ="Y" c_shapetype="group" id="gge178" locked="0" c_rotation="0" c_width="14.961" c_height="14.961" title="" c_shape="ELLIPSE" pasteExpansion="0" solderExpansion="0.4"><ellipse cx="4165.35" cy="3085" rx="7.4805" ry="7.4805" stroke-width="0" /><polyline c_padhole="1" points="4165.336 3085 4165.356 3085" stroke-width="10"></polyline></g><g c_partid="part_pad" c_etype="pinpart" c_origin="4130,3065" layerid="11" number="1" net="U1_1" plated ="Y" c_shapetype="group" id="gge188" locked="0" c_rotation="90" c_width="5.9055" c_height="5.9055" title="U1_1" c_shape="RECT" pasteExpansion="0" solderExpansion="0.4"><polygon points="4127.047 3067.953 4127.047 3062.047 4132.953 3062.047 4132.953 3067.953" stroke-width="0" /><circle c_padhole="1" cx="4130" cy="3065" r="1.7717" stroke-width="0" /></g><g c_partid="part_pad" c_etype="pinpart" c_origin="4140,3065" layerid="11" number="2" net="GND" plated ="Y" c_shapetype="group" id="gge191" locked="0" c_rotation="90" c_width="5.9055" c_height="5.9055" title="GND" c_shape="ELLIPSE" pasteExpansion="0" solderExpansion="0.4"><ellipse cx="4140" cy="3065" rx="2.95275" ry="2.95275" stroke-width="0" /><circle c_padhole="1" cx="4140" cy="3065" r="1.7717" stroke-width="0" /></g><g c_partid="part_pad" c_etype="pinpart" c_origin="4150,3065" layerid="11" number="3" net="U1_3" plated ="Y" c_shapetype="group" id="gge196" locked="0" c_rotation="90" c_width="5.9055" c_height="5.9055" title="U1_3" c_shape="ELLIPSE" pasteExpansion="0" solderExpansion="0.4"><ellipse cx="4150" cy="3065" rx="2.95275" ry="2.95275" stroke-width="0" /><circle c_padhole="1" cx="4150" cy="3065" r="1.7717" stroke-width="0" /></g><g c_partid="part_pad" c_etype="pinpart" c_origin="4130,3035" layerid="11" number="6" net="U1_6" plated ="Y" c_shapetype="group" id="gge201" locked="0" c_rotation="90" c_width="5.9055" c_height="5.9055" title="U1_6" c_shape="ELLIPSE" pasteExpansion="0" solderExpansion="0.4"><ellipse cx="4130" cy="3035" rx="2.95275" ry="2.95275" stroke-width="0" /><circle c_padhole="1" cx="4130" cy="3035" r="1.7717" stroke-width="0" /></g><g c_partid="part_pad" c_etype="pinpart" c_origin="4140,3035" layerid="11" number="5" net="U1_5" plated ="Y" c_shapetype="group" id="gge206" locked="0" c_rotation="90" c_width="5.9055" c_height="5.9055" title="U1_5" c_shape="ELLIPSE" pasteExpansion="0" solderExpansion="0.4"><ellipse cx="4140" cy="3035" rx="2.95275" ry="2.95275" stroke-width="0" /><circle c_padhole="1" cx="4140" cy="3035" r="1.7717" stroke-width="0" /></g><g c_partid="part_pad" c_etype="pinpart" c_origin="4150,3035" layerid="11" number="4" net="U1_4" plated ="Y" c_shapetype="group" id="gge211" locked="0" c_rotation="90" c_width="5.9055" c_height="5.9055" title="U1_4" c_shape="ELLIPSE" pasteExpansion="0" solderExpansion="0.4"><ellipse cx="4150" cy="3035" rx="2.95275" ry="2.95275" stroke-width="0" /><circle c_padhole="1" cx="4150" cy="3035" r="1.7717" stroke-width="0" /></g><g c_partid="part_pad" c_etype="pinpart" c_origin="4050,3065" layerid="11" number="1" net="U2_1" plated ="Y" c_shapetype="group" id="gge225" locked="0" c_rotation="90" c_width="5.9055" c_height="5.9055" title="U2_1" c_shape="RECT" pasteExpansion="0" solderExpansion="0.4"><polygon points="4047.047 3067.953 4047.047 3062.047 4052.953 3062.047 4052.953 3067.953" stroke-width="0" /><circle c_padhole="1" cx="4050" cy="3065" r="1.7717" stroke-width="0" /></g><g c_partid="part_pad" c_etype="pinpart" c_origin="4060,3065" layerid="11" number="2" net="GND" plated ="Y" c_shapetype="group" id="gge228" locked="0" c_rotation="90" c_width="5.9055" c_height="5.9055" title="GND" c_shape="ELLIPSE" pasteExpansion="0" solderExpansion="0.4"><ellipse cx="4060" cy="3065" rx="2.95275" ry="2.95275" stroke-width="0" /><circle c_padhole="1" cx="4060" cy="3065" r="1.7717" stroke-width="0" /></g><g c_partid="part_pad" c_etype="pinpart" c_origin="4070,3065" layerid="11" number="3" net="U2_3" plated ="Y" c_shapetype="group" id="gge233" locked="0" c_rotation="90" c_width="5.9055" c_height="5.9055" title="U2_3" c_shape="ELLIPSE" pasteExpansion="0" solderExpansion="0.4"><ellipse cx="4070" cy="3065" rx="2.95275" ry="2.95275" stroke-width="0" /><circle c_padhole="1" cx="4070" cy="3065" r="1.7717" stroke-width="0" /></g><g c_partid="part_pad" c_etype="pinpart" c_origin="4050,3035" layerid="11" number="6" net="U2_6" plated ="Y" c_shapetype="group" id="gge238" locked="0" c_rotation="90" c_width="5.9055" c_height="5.9055" title="U2_6" c_shape="ELLIPSE" pasteExpansion="0" solderExpansion="0.4"><ellipse cx="4050" cy="3035" rx="2.95275" ry="2.95275" stroke-width="0" /><circle c_padhole="1" cx="4050" cy="3035" r="1.7717" stroke-width="0" /></g><g c_partid="part_pad" c_etype="pinpart" c_origin="4060,3035" layerid="11" number="5" net="U2_5" plated ="Y" c_shapetype="group" id="gge243" locked="0" c_rotation="90" c_width="5.9055" c_height="5.9055" title="U2_5" c_shape="ELLIPSE" pasteExpansion="0" solderExpansion="0.4"><ellipse cx="4060" cy="3035" rx="2.95275" ry="2.95275" stroke-width="0" /><circle c_padhole="1" cx="4060" cy="3035" r="1.7717" stroke-width="0" /></g><g c_partid="part_pad" c_etype="pinpart" c_origin="4070,3035" layerid="11" number="4" net="U2_4" plated ="Y" c_shapetype="group" id="gge248" locked="0" c_rotation="90" c_width="5.9055" c_height="5.9055" title="U2_4" c_shape="ELLIPSE" pasteExpansion="0" solderExpansion="0.4"><ellipse cx="4070" cy="3035" rx="2.95275" ry="2.95275" stroke-width="0" /><circle c_padhole="1" cx="4070" cy="3035" r="1.7717" stroke-width="0" /></g><g c_partid="part_pad" c_etype="pinpart" c_origin="4140,3180" layerid="11" number="1" net="R3_2" plated ="Y" c_shapetype="group" id="gge260" locked="0" c_rotation="90" c_width="6.5" c_height="6.5" title="R3_2" c_shape="ELLIPSE" pasteExpansion="0" solderExpansion="0.4"><ellipse cx="4140" cy="3180" rx="3.25" ry="3.25" stroke-width="0" /><circle c_padhole="1" cx="4140" cy="3180" r="1.9" stroke-width="0" /></g><g c_partid="part_pad" c_etype="pinpart" c_origin="4140,3190" layerid="11" number="2" net="GND" plated ="Y" c_shapetype="group" id="gge263" locked="0" c_rotation="90" c_width="6.5" c_height="6.5" title="GND" c_shape="ELLIPSE" pasteExpansion="0" solderExpansion="0.4"><ellipse cx="4140" cy="3190" rx="3.25" ry="3.25" stroke-width="0" /><circle c_padhole="1" cx="4140" cy="3190" r="1.9" stroke-width="0" /></g><g c_partid="part_pad" c_etype="pinpart" c_origin="4100,3180" layerid="11" number="1" net="R4_2" plated ="Y" c_shapetype="group" id="gge275" locked="0" c_rotation="90" c_width="6.5" c_height="6.5" title="R4_2" c_shape="ELLIPSE" pasteExpansion="0" solderExpansion="0.4"><ellipse cx="4100" cy="3180" rx="3.25" ry="3.25" stroke-width="0" /><circle c_padhole="1" cx="4100" cy="3180" r="1.9" stroke-width="0" /></g><g c_partid="part_pad" c_etype="pinpart" c_origin="4100,3190" layerid="11" number="2" net="GND" plated ="Y" c_shapetype="group" id="gge278" locked="0" c_rotation="90" c_width="6.5" c_height="6.5" title="GND" c_shape="ELLIPSE" pasteExpansion="0" solderExpansion="0.4"><ellipse cx="4100" cy="3190" rx="3.25" ry="3.25" stroke-width="0" /><circle c_padhole="1" cx="4100" cy="3190" r="1.9" stroke-width="0" /></g><polyline points="4150 3103 4130 3103" stroke-width="1" c_shapetype="line" stroke-linecap="round" fill="none" layerid="3" net="" id="gge26" /><polyline points="4130 3103 4130 3100" stroke-width="1" c_shapetype="line" stroke-linecap="round" fill="none" layerid="3" net="" id="gge27" /><polyline points="4130 3100 4130 3097" stroke-width="1" c_shapetype="line" stroke-linecap="round" fill="none" layerid="3" net="" id="gge28" /><polyline points="4130 3097 4150 3097" stroke-width="1" c_shapetype="line" stroke-linecap="round" fill="none" layerid="3" net="" id="gge29" /><polyline points="4150 3097 4150 3100" stroke-width="1" c_shapetype="line" stroke-linecap="round" fill="none" layerid="3" net="" id="gge30" /><polyline points="4150 3100 4150 3103" stroke-width="1" c_shapetype="line" stroke-linecap="round" fill="none" layerid="3" net="" id="gge31" /><polyline points="4130 3100 4129 3100" stroke-width="1" c_shapetype="line" stroke-linecap="round" fill="none" layerid="3" net="" id="gge32" /><polyline points="4150 3100 4151 3100" stroke-width="1" c_shapetype="line" stroke-linecap="round" fill="none" layerid="3" net="" id="gge33" /><polyline points="4075 3103 4055 3103" stroke-width="1" c_shapetype="line" stroke-linecap="round" fill="none" layerid="3" net="" id="gge39" /><polyline points="4055 3103 4055 3100" stroke-width="1" c_shapetype="line" stroke-linecap="round" fill="none" layerid="3" net="" id="gge40" /><polyline points="4055 3100 4055 3097" stroke-width="1" c_shapetype="line" stroke-linecap="round" fill="none" layerid="3" net="" id="gge41" /><polyline points="4055 3097 4075 3097" stroke-width="1" c_shapetype="line" stroke-linecap="round" fill="none" layerid="3" net="" id="gge42" /><polyline points="4075 3097 4075 3100" stroke-width="1" c_shapetype="line" stroke-linecap="round" fill="none" layerid="3" net="" id="gge43" /><polyline points="4075 3100 4075 3103" stroke-width="1" c_shapetype="line" stroke-linecap="round" fill="none" layerid="3" net="" id="gge44" /><polyline points="4055 3100 4054 3100" stroke-width="1" c_shapetype="line" stroke-linecap="round" fill="none" layerid="3" net="" id="gge45" /><polyline points="4075 3100 4076 3100" stroke-width="1" c_shapetype="line" stroke-linecap="round" fill="none" layerid="3" net="" id="gge46" /><polyline points="4137 3140 4137 3120" stroke-width="1" c_shapetype="line" stroke-linecap="round" fill="none" layerid="3" net="" id="gge52" /><polyline points="4137 3120 4140 3120" stroke-width="1" c_shapetype="line" stroke-linecap="round" fill="none" layerid="3" net="" id="gge53" /><polyline points="4140 3120 4143 3120" stroke-width="1" c_shapetype="line" stroke-linecap="round" fill="none" layerid="3" net="" id="gge54" /><polyline points="4143 3120 4143 3140" stroke-width="1" c_shapetype="line" stroke-linecap="round" fill="none" layerid="3" net="" id="gge55" /><polyline points="4143 3140 4140 3140" stroke-width="1" c_shapetype="line" stroke-linecap="round" fill="none" layerid="3" net="" id="gge56" /><polyline points="4140 3140 4137 3140" stroke-width="1" c_shapetype="line" stroke-linecap="round" fill="none" layerid="3" net="" id="gge57" /><polyline points="4140 3120 4140 3119" stroke-width="1" c_shapetype="line" stroke-linecap="round" fill="none" layerid="3" net="" id="gge58" /><polyline points="4140 3140 4140 3141" stroke-width="1" c_shapetype="line" stroke-linecap="round" fill="none" layerid="3" net="" id="gge59" /><polyline points="4071.816 3173.576 4048.592 3173.576 4048.592 3196.405 4071.816 3196.405 4071.816 3173.576" stroke-width="1" c_shapetype="line" stroke-linecap="round" fill="none" layerid="3" net="" id="gge65" /><polyline points="4038.184 3016.424 4061.408 3016.424 4061.408 2993.595 4038.184 2993.595 4038.184 3016.424" stroke-width="1" c_shapetype="line" stroke-linecap="round" fill="none" layerid="3" net="" id="gge75" /><polyline points="4138.184 3016.424 4161.408 3016.424 4161.408 2993.595 4138.184 2993.595 4138.184 3016.424" stroke-width="1" c_shapetype="line" stroke-linecap="round" fill="none" layerid="3" net="" id="gge85" /><polyline points="4095.984 3023.701 4074.016 3023.701" stroke-width="1" c_shapetype="line" stroke-linecap="round" fill="none" layerid="3" net="S$51" id="gge95" /><polyline points="4074.016 3023.701 4074.016 2989.449" stroke-width="1" c_shapetype="line" stroke-linecap="round" fill="none" layerid="3" net="S$53" id="gge96" /><polyline points="4095.984 2989.449 4095.984 3023.701" stroke-width="1" c_shapetype="line" stroke-linecap="round" fill="none" layerid="3" net="S$53" id="gge97" /><polyline points="4095.984 2989.449 4074.016 2989.449" stroke-width="1" c_shapetype="line" stroke-linecap="round" fill="none" layerid="3" net="S$51" id="gge98" /><polyline points="4125.984 3023.701 4104.016 3023.701" stroke-width="1" c_shapetype="line" stroke-linecap="round" fill="none" layerid="3" net="S$51" id="gge104" /><polyline points="4104.016 3023.701 4104.016 2989.449" stroke-width="1" c_shapetype="line" stroke-linecap="round" fill="none" layerid="3" net="S$53" id="gge105" /><polyline points="4125.984 2989.449 4125.984 3023.701" stroke-width="1" c_shapetype="line" stroke-linecap="round" fill="none" layerid="3" net="S$53" id="gge106" /><polyline points="4125.984 2989.449 4104.016 2989.449" stroke-width="1" c_shapetype="line" stroke-linecap="round" fill="none" layerid="3" net="S$51" id="gge107" /><polyline points="4097 3140 4097 3120" stroke-width="1" c_shapetype="line" stroke-linecap="round" fill="none" layerid="3" net="" id="gge113" /><polyline points="4097 3120 4100 3120" stroke-width="1" c_shapetype="line" stroke-linecap="round" fill="none" layerid="3" net="" id="gge114" /><polyline points="4100 3120 4103 3120" stroke-width="1" c_shapetype="line" stroke-linecap="round" fill="none" layerid="3" net="" id="gge115" /><polyline points="4103 3120 4103 3140" stroke-width="1" c_shapetype="line" stroke-linecap="round" fill="none" layerid="3" net="" id="gge116" /><polyline points="4103 3140 4100 3140" stroke-width="1" c_shapetype="line" stroke-linecap="round" fill="none" layerid="3" net="" id="gge117" /><polyline points="4100 3140 4097 3140" stroke-width="1" c_shapetype="line" stroke-linecap="round" fill="none" layerid="3" net="" id="gge118" /><polyline points="4100 3120 4100 3119" stroke-width="1" c_shapetype="line" stroke-linecap="round" fill="none" layerid="3" net="" id="gge119" /><polyline points="4100 3140 4100 3141" stroke-width="1" c_shapetype="line" stroke-linecap="round" fill="none" layerid="3" net="" id="gge120" /><polyline points="4077 3140 4077 3120" stroke-width="1" c_shapetype="line" stroke-linecap="round" fill="none" layerid="3" net="" id="gge126" /><polyline points="4077 3120 4080 3120" stroke-width="1" c_shapetype="line" stroke-linecap="round" fill="none" layerid="3" net="" id="gge127" /><polyline points="4080 3120 4083 3120" stroke-width="1" c_shapetype="line" stroke-linecap="round" fill="none" layerid="3" net="" id="gge128" /><polyline points="4083 3120 4083 3140" stroke-width="1" c_shapetype="line" stroke-linecap="round" fill="none" layerid="3" net="" id="gge129" /><polyline points="4083 3140 4080 3140" stroke-width="1" c_shapetype="line" stroke-linecap="round" fill="none" layerid="3" net="" id="gge130" /><polyline points="4080 3140 4077 3140" stroke-width="1" c_shapetype="line" stroke-linecap="round" fill="none" layerid="3" net="" id="gge131" /><polyline points="4080 3120 4080 3119" stroke-width="1" c_shapetype="line" stroke-linecap="round" fill="none" layerid="3" net="" id="gge132" /><polyline points="4080 3140 4080 3141" stroke-width="1" c_shapetype="line" stroke-linecap="round" fill="none" layerid="3" net="" id="gge133" /><polyline points="4057 3140 4057 3120" stroke-width="1" c_shapetype="line" stroke-linecap="round" fill="none" layerid="3" net="" id="gge139" /><polyline points="4057 3120 4060 3120" stroke-width="1" c_shapetype="line" stroke-linecap="round" fill="none" layerid="3" net="" id="gge140" /><polyline points="4060 3120 4063 3120" stroke-width="1" c_shapetype="line" stroke-linecap="round" fill="none" layerid="3" net="" id="gge141" /><polyline points="4063 3120 4063 3140" stroke-width="1" c_shapetype="line" stroke-linecap="round" fill="none" layerid="3" net="" id="gge142" /><polyline points="4063 3140 4060 3140" stroke-width="1" c_shapetype="line" stroke-linecap="round" fill="none" layerid="3" net="" id="gge143" /><polyline points="4060 3140 4057 3140" stroke-width="1" c_shapetype="line" stroke-linecap="round" fill="none" layerid="3" net="" id="gge144" /><polyline points="4060 3120 4060 3119" stroke-width="1" c_shapetype="line" stroke-linecap="round" fill="none" layerid="3" net="" id="gge145" /><polyline points="4060 3140 4060 3141" stroke-width="1" c_shapetype="line" stroke-linecap="round" fill="none" layerid="3" net="" id="gge146" /><polyline points="4025 3165 4025 3075 4175 3075 4175 3165 4025 3165" stroke-width="0.787" c_shapetype="line" stroke-linecap="round" fill="none" layerid="3" net="" id="gge152" /><polyline points="4122.19 3047.5 4122.19 3039.57 4157.72 3039.57 4157.72 3060.43 4122.19 3060.43 4122.19 3052.5" stroke-width="0.7874" c_shapetype="line" stroke-linecap="round" fill="none" layerid="3" net="" id="gge187" /><polyline points="4042.19 3047.5 4042.19 3039.57 4077.72 3039.57 4077.72 3060.43 4042.19 3060.43 4042.19 3052.5" stroke-width="0.7874" c_shapetype="line" stroke-linecap="round" fill="none" layerid="3" net="" id="gge224" /><polyline points="4134.882 3193.779 4145.118 3193.779" stroke-width="1" c_shapetype="line" stroke-linecap="round" fill="none" layerid="3" net="" id="gge259" /><polyline points="4094.882 3193.779 4105.118 3193.779" stroke-width="1" c_shapetype="line" stroke-linecap="round" fill="none" layerid="3" net="" id="gge274" /><g c_partid="part_pcbtext" c_origin="4037.45,3140.58" c_rotation="90" c_mirror="" id="gge283" layerid="3" c_shapetype="group" ><path c_fontSize="4.5" c_fontFamily="" c_text="AutoDesk 1.1" d="M 4035 3138.94L4039.29 3140.58 M 4035 3138.94L4039.29 3137.31 M 4037.86 3139.97L4037.86 3137.92 M 4036.43 3135.96L4038.47 3135.96 L4039.09 3135.75 L4039.29 3135.34 L4039.29 3134.73 L4039.09 3134.32 L4038.47 3133.71 M 4036.43 3133.71L4039.29 3133.71 M 4035 3131.74L4038.47 3131.74 L4039.09 3131.54 L4039.29 3131.13 L4039.29 3130.72 M 4036.43 3132.36L4036.43 3130.93 M 4036.43 3128.35L4036.63 3128.76 L4037.04 3129.17 L4037.65 3129.37 L4038.06 3129.37 L4038.68 3129.17 L4039.09 3128.76 L4039.29 3128.35 L4039.29 3127.73 L4039.09 3127.33 L4038.68 3126.92 L4038.06 3126.71 L4037.65 3126.71 L4037.04 3126.92 L4036.63 3127.33 L4036.43 3127.73 L4036.43 3128.35 M 4035 3125.36L4039.29 3125.36 M 4035 3125.36L4035 3123.93 L4035.2 3123.32 L4035.61 3122.91 L4036.02 3122.7 L4036.63 3122.5 L4037.65 3122.5 L4038.27 3122.7 L4038.68 3122.91 L4039.09 3123.32 L4039.29 3123.93 L4039.29 3125.36 M 4037.65 3121.15L4037.65 3118.69 L4037.25 3118.69 L4036.84 3118.9 L4036.63 3119.1 L4036.43 3119.51 L4036.43 3120.13 L4036.63 3120.53 L4037.04 3120.94 L4037.65 3121.15 L4038.06 3121.15 L4038.68 3120.94 L4039.09 3120.53 L4039.29 3120.13 L4039.29 3119.51 L4039.09 3119.1 L4038.68 3118.69 M 4037.04 3115.09L4036.63 3115.3 L4036.43 3115.91 L4036.43 3116.53 L4036.63 3117.14 L4037.04 3117.34 L4037.45 3117.14 L4037.65 3116.73 L4037.86 3115.71 L4038.06 3115.3 L4038.47 3115.09 L4038.68 3115.09 L4039.09 3115.3 L4039.29 3115.91 L4039.29 3116.53 L4039.09 3117.14 L4038.68 3117.34 M 4035 3113.74L4039.29 3113.74 M 4036.43 3111.7L4038.47 3113.74 M 4037.65 3112.93L4039.29 3111.49 M 4035.81 3106.99L4035.61 3106.58 L4035 3105.97 L4039.29 3105.97 M 4038.27 3104.42L4038.47 3104.62 L4038.68 3104.42 L4038.47 3104.21 L4038.27 3104.42 M 4035.81 3102.86L4035.61 3102.45 L4035 3101.84 L4039.29 3101.84 " fill="none"  stroke-width="0.5984"  /></g><g c_partid="part_pcbtext" c_origin="4135,3092.5" c_rotation="0" c_mirror="" id="gge24" layerid="3" c_shapetype="group" ><path c_fontSize="4.5" c_fontFamily="" c_text="R1" d="M 4135 3090.05 L 4135 3094.34 M 4135 3090.05 L 4136.84 3090.05 L 4137.45 3090.25 L 4137.66 3090.45 L 4137.86 3090.86 L 4137.86 3091.27 L 4137.66 3091.68 L 4137.45 3091.89 L 4136.84 3092.09 L 4135 3092.09 M 4136.43 3092.09 L 4137.86 3094.34 M 4139.21 3090.86 L 4139.62 3090.66 L 4140.24 3090.05 L 4140.24 3094.34" fill="none"  stroke-width="0.6" c_note="note_pre" /></g><g c_partid="part_pcbtext" c_origin="4140,3112.44" c_rotation="180" c_mirror="" id="gge25" layerid="3" c_shapetype="group" display="none"><path c_fontSize="4.5" c_fontFamily="" c_text="200" d="M 4139.8 3113.87 L 4139.8 3114.08 L 4139.59 3114.49 L 4139.39 3114.69 L 4138.98 3114.89 L 4138.16 3114.89 L 4137.75 3114.69 L 4137.55 3114.49 L 4137.34 3114.08 L 4137.34 3113.67 L 4137.55 3113.26 L 4137.95 3112.64 L 4140 3110.6 L 4137.14 3110.6 M 4134.56 3114.89 L 4135.17 3114.69 L 4135.58 3114.08 L 4135.79 3113.05 L 4135.79 3112.44 L 4135.58 3111.42 L 4135.17 3110.8 L 4134.56 3110.6 L 4134.15 3110.6 L 4133.54 3110.8 L 4133.13 3111.42 L 4132.92 3112.44 L 4132.92 3113.05 L 4133.13 3114.08 L 4133.54 3114.69 L 4134.15 3114.89 L 4134.56 3114.89 M 4130.35 3114.89 L 4130.96 3114.69 L 4131.37 3114.08 L 4131.57 3113.05 L 4131.57 3112.44 L 4131.37 3111.42 L 4130.96 3110.8 L 4130.35 3110.6 L 4129.94 3110.6 L 4129.32 3110.8 L 4128.91 3111.42 L 4128.71 3112.44 L 4128.71 3113.05 L 4128.91 3114.08 L 4129.32 3114.69 L 4129.94 3114.89 L 4130.35 3114.89" fill="none"  stroke-width="0.6"  /></g><g c_partid="part_pcbtext" c_origin="4060,3092.45" c_rotation="0" c_mirror="" id="gge37" layerid="3" c_shapetype="group" ><path c_fontSize="4.5" c_fontFamily="" c_text="R2" d="M 4060 3090 L 4060 3094.29 M 4060 3090 L 4061.84 3090 L 4062.45 3090.2 L 4062.66 3090.4 L 4062.86 3090.81 L 4062.86 3091.22 L 4062.66 3091.63 L 4062.45 3091.84 L 4061.84 3092.04 L 4060 3092.04 M 4061.43 3092.04 L 4062.86 3094.29 M 4064.42 3091.02 L 4064.42 3090.81 L 4064.62 3090.4 L 4064.83 3090.2 L 4065.24 3090 L 4066.05 3090 L 4066.46 3090.2 L 4066.67 3090.4 L 4066.87 3090.81 L 4066.87 3091.22 L 4066.67 3091.63 L 4066.26 3092.25 L 4064.21 3094.29 L 4067.08 3094.29" fill="none"  stroke-width="0.6" c_note="note_pre" /></g><g c_partid="part_pcbtext" c_origin="4065,3112.44" c_rotation="180" c_mirror="" id="gge38" layerid="3" c_shapetype="group" display="none"><path c_fontSize="4.5" c_fontFamily="" c_text="200" d="M 4064.8 3113.87 L 4064.8 3114.08 L 4064.59 3114.49 L 4064.39 3114.69 L 4063.98 3114.89 L 4063.16 3114.89 L 4062.75 3114.69 L 4062.55 3114.49 L 4062.34 3114.08 L 4062.34 3113.67 L 4062.55 3113.26 L 4062.95 3112.64 L 4065 3110.6 L 4062.14 3110.6 M 4059.56 3114.89 L 4060.17 3114.69 L 4060.58 3114.08 L 4060.79 3113.05 L 4060.79 3112.44 L 4060.58 3111.42 L 4060.17 3110.8 L 4059.56 3110.6 L 4059.15 3110.6 L 4058.54 3110.8 L 4058.13 3111.42 L 4057.92 3112.44 L 4057.92 3113.05 L 4058.13 3114.08 L 4058.54 3114.69 L 4059.15 3114.89 L 4059.56 3114.89 M 4055.35 3114.89 L 4055.96 3114.69 L 4056.37 3114.08 L 4056.57 3113.05 L 4056.57 3112.44 L 4056.37 3111.42 L 4055.96 3110.8 L 4055.35 3110.6 L 4054.94 3110.6 L 4054.32 3110.8 L 4053.91 3111.42 L 4053.71 3112.44 L 4053.71 3113.05 L 4053.91 3114.08 L 4054.32 3114.69 L 4054.94 3114.89 L 4055.35 3114.89" fill="none"  stroke-width="0.6"  /></g><g c_partid="part_pcbtext" c_origin="4147.5,3137.5" c_rotation="90" c_mirror="" id="gge50" layerid="3" c_shapetype="group" ><path c_fontSize="4.5" c_fontFamily="" c_text="R3" d="M 4145.05 3137.5 L 4149.34 3137.5 M 4145.05 3137.5 L 4145.05 3135.66 L 4145.25 3135.05 L 4145.45 3134.84 L 4145.86 3134.64 L 4146.27 3134.64 L 4146.68 3134.84 L 4146.89 3135.05 L 4147.09 3135.66 L 4147.09 3137.5 M 4147.09 3136.07 L 4149.34 3134.64 M 4145.05 3132.88 L 4145.05 3130.63 L 4146.68 3131.85 L 4146.68 3131.24 L 4146.89 3130.83 L 4147.09 3130.63 L 4147.7 3130.42 L 4148.11 3130.42 L 4148.73 3130.63 L 4149.14 3131.04 L 4149.34 3131.65 L 4149.34 3132.26 L 4149.14 3132.88 L 4148.93 3133.08 L 4148.52 3133.29" fill="none"  stroke-width="0.6" c_note="note_pre" /></g><g c_partid="part_pcbtext" c_origin="4127.56,3130" c_rotation="90" c_mirror="" id="gge51" layerid="3" c_shapetype="group" display="none"><path c_fontSize="4.5" c_fontFamily="" c_text="200" d="M 4126.13 3129.8 L 4125.92 3129.8 L 4125.51 3129.59 L 4125.31 3129.39 L 4125.11 3128.98 L 4125.11 3128.16 L 4125.31 3127.75 L 4125.51 3127.55 L 4125.92 3127.34 L 4126.33 3127.34 L 4126.74 3127.55 L 4127.36 3127.95 L 4129.4 3130 L 4129.4 3127.14 M 4125.11 3124.56 L 4125.31 3125.17 L 4125.92 3125.58 L 4126.95 3125.79 L 4127.56 3125.79 L 4128.58 3125.58 L 4129.2 3125.17 L 4129.4 3124.56 L 4129.4 3124.15 L 4129.2 3123.54 L 4128.58 3123.13 L 4127.56 3122.92 L 4126.95 3122.92 L 4125.92 3123.13 L 4125.31 3123.54 L 4125.11 3124.15 L 4125.11 3124.56 M 4125.11 3120.35 L 4125.31 3120.96 L 4125.92 3121.37 L 4126.95 3121.57 L 4127.56 3121.57 L 4128.58 3121.37 L 4129.2 3120.96 L 4129.4 3120.35 L 4129.4 3119.94 L 4129.2 3119.32 L 4128.58 3118.91 L 4127.56 3118.71 L 4126.95 3118.71 L 4125.92 3118.91 L 4125.31 3119.32 L 4125.11 3119.94 L 4125.11 3120.35" fill="none"  stroke-width="0.6"  /></g><g c_partid="part_pcbtext" c_origin="4077.46,3193.21" c_rotation="90" c_mirror="" id="gge63" layerid="3" c_shapetype="group" ><path c_fontSize="4.5" c_fontFamily="" c_text="KEY3" d="M 4074.9999 3193.21 L 4079.2999 3193.21 M 4074.9999 3190.35 L 4077.8599 3193.21 M 4076.8399 3192.19 L 4079.2999 3190.35 M 4074.9999 3189 L 4079.2999 3189 M 4074.9999 3189 L 4074.9999 3186.34 M 4077.0499 3189 L 4077.0499 3187.36 M 4079.2999 3189 L 4079.2999 3186.34 M 4074.9999 3184.99 L 4077.0499 3183.35 L 4079.2999 3183.35 M 4074.9999 3181.71 L 4077.0499 3183.35 M 4074.9999 3179.96 L 4074.9999 3177.71 L 4076.6399 3178.93 L 4076.6399 3178.32 L 4076.8399 3177.91 L 4077.0499 3177.71 L 4077.6599 3177.5 L 4078.0699 3177.5 L 4078.6799 3177.71 L 4079.0899 3178.11 L 4079.2999 3178.73 L 4079.2999 3179.34 L 4079.0899 3179.96 L 4078.8899 3180.16 L 4078.4799 3180.36" fill="none"  stroke-width="0.6" c_note="note_pre" /></g><g c_partid="part_pcbtext" c_origin="4081.54,3185" c_rotation="270" c_mirror="" id="gge64" layerid="3" c_shapetype="group" display="none"><path c_fontSize="4.5" c_fontFamily="" c_text="TS-1102-5016" d="M 4083.99 3186.43 L 4079.69 3186.43 M 4083.99 3185 L 4083.99 3187.86 M 4083.38 3192.08 L 4083.79 3191.67 L 4083.99 3191.05 L 4083.99 3190.24 L 4083.79 3189.62 L 4083.38 3189.21 L 4082.97 3189.21 L 4082.56 3189.42 L 4082.35 3189.62 L 4082.15 3190.03 L 4081.74 3191.26 L 4081.54 3191.67 L 4081.33 3191.87 L 4080.92 3192.08 L 4080.31 3192.08 L 4079.9 3191.67 L 4079.69 3191.05 L 4079.69 3190.24 L 4079.9 3189.62 L 4080.31 3189.21 M 4081.54 3193.43 L 4081.54 3197.11 M 4083.17 3198.46 L 4083.38 3198.87 L 4083.99 3199.48 L 4079.69 3199.48 M 4083.17 3200.83 L 4083.38 3201.24 L 4083.99 3201.85 L 4079.69 3201.85 M 4083.99 3204.43 L 4083.79 3203.82 L 4083.17 3203.41 L 4082.15 3203.2 L 4081.54 3203.2 L 4080.51 3203.41 L 4079.9 3203.82 L 4079.69 3204.43 L 4079.69 3204.84 L 4079.9 3205.45 L 4080.51 3205.86 L 4081.54 3206.07 L 4082.15 3206.07 L 4083.17 3205.86 L 4083.79 3205.45 L 4083.99 3204.84 L 4083.99 3204.43 M 4082.97 3207.62 L 4083.17 3207.62 L 4083.58 3207.83 L 4083.79 3208.03 L 4083.99 3208.44 L 4083.99 3209.26 L 4083.79 3209.67 L 4083.58 3209.87 L 4083.17 3210.08 L 4082.76 3210.08 L 4082.35 3209.87 L 4081.74 3209.46 L 4079.69 3207.42 L 4079.69 3210.28 M 4081.54 3211.63 L 4081.54 3215.31 M 4083.99 3219.12 L 4083.99 3217.07 L 4082.15 3216.87 L 4082.35 3217.07 L 4082.56 3217.69 L 4082.56 3218.3 L 4082.35 3218.91 L 4081.94 3219.32 L 4081.33 3219.53 L 4080.92 3219.53 L 4080.31 3219.32 L 4079.9 3218.91 L 4079.69 3218.3 L 4079.69 3217.69 L 4079.9 3217.07 L 4080.1 3216.87 L 4080.51 3216.66 M 4083.99 3222.1 L 4083.79 3221.49 L 4083.17 3221.08 L 4082.15 3220.88 L 4081.54 3220.88 L 4080.51 3221.08 L 4079.9 3221.49 L 4079.69 3222.1 L 4079.69 3222.51 L 4079.9 3223.13 L 4080.51 3223.54 L 4081.54 3223.74 L 4082.15 3223.74 L 4083.17 3223.54 L 4083.79 3223.13 L 4083.99 3222.51 L 4083.99 3222.1 M 4083.17 3225.09 L 4083.38 3225.5 L 4083.99 3226.11 L 4079.69 3226.11 M 4083.38 3229.92 L 4083.79 3229.71 L 4083.99 3229.1 L 4083.99 3228.69 L 4083.79 3228.08 L 4083.17 3227.67 L 4082.15 3227.46 L 4081.13 3227.46 L 4080.31 3227.67 L 4079.9 3228.08 L 4079.69 3228.69 L 4079.69 3228.9 L 4079.9 3229.51 L 4080.31 3229.92 L 4080.92 3230.12 L 4081.13 3230.12 L 4081.74 3229.92 L 4082.15 3229.51 L 4082.35 3228.9 L 4082.35 3228.69 L 4082.15 3228.08 L 4081.74 3227.67 L 4081.13 3227.46" fill="none"  stroke-width="0.6"  /></g><g c_partid="part_pcbtext" c_origin="4032.5,3012.5" c_rotation="90" c_mirror="" id="gge73" layerid="3" c_shapetype="group" ><path c_fontSize="4.5" c_fontFamily="" c_text="KEY2" d="M 4030.045 3012.5 L 4034.345 3012.5 M 4030.045 3009.64 L 4032.905 3012.5 M 4031.885 3011.48 L 4034.345 3009.64 M 4030.045 3008.29 L 4034.345 3008.29 M 4030.045 3008.29 L 4030.045 3005.63 M 4032.095 3008.29 L 4032.095 3006.65 M 4034.345 3008.29 L 4034.345 3005.63 M 4030.045 3004.28 L 4032.095 3002.64 L 4034.345 3002.64 M 4030.045 3001 L 4032.095 3002.64 M 4031.065 2999.45 L 4030.865 2999.45 L 4030.455 2999.25 L 4030.245 2999.04 L 4030.045 2998.63 L 4030.045 2997.81 L 4030.245 2997.4 L 4030.455 2997.2 L 4030.865 2997 L 4031.275 2997 L 4031.685 2997.2 L 4032.295 2997.61 L 4034.345 2999.65 L 4034.345 2996.79" fill="none"  stroke-width="0.6" c_note="note_pre" /></g><g c_partid="part_pcbtext" c_origin="4028.47,3005" c_rotation="90" c_mirror="" id="gge74" layerid="3" c_shapetype="group" display="none"><path c_fontSize="4.5" c_fontFamily="" c_text="TS-1102-5016" d="M 4026.015 3003.565 L 4030.305 3003.565 M 4026.015 3004.995 L 4026.015 3002.135 M 4026.625 2997.925 L 4026.215 2998.335 L 4026.015 2998.945 L 4026.015 2999.765 L 4026.215 3000.375 L 4026.625 3000.785 L 4027.035 3000.785 L 4027.445 3000.585 L 4027.645 3000.375 L 4027.855 2999.965 L 4028.265 2998.745 L 4028.465 2998.335 L 4028.665 2998.125 L 4029.075 2997.925 L 4029.695 2997.925 L 4030.105 2998.335 L 4030.305 2998.945 L 4030.305 2999.765 L 4030.105 3000.375 L 4029.695 3000.785 M 4028.465 2996.575 L 4028.465 2992.895 M 4026.825 2991.545 L 4026.625 2991.135 L 4026.015 2990.515 L 4030.305 2990.515 M 4026.825 2989.165 L 4026.625 2988.755 L 4026.015 2988.145 L 4030.305 2988.145 M 4026.015 2985.565 L 4026.215 2986.185 L 4026.825 2986.595 L 4027.855 2986.795 L 4028.465 2986.795 L 4029.485 2986.595 L 4030.105 2986.185 L 4030.305 2985.565 L 4030.305 2985.155 L 4030.105 2984.545 L 4029.485 2984.135 L 4028.465 2983.935 L 4027.855 2983.935 L 4026.825 2984.135 L 4026.215 2984.545 L 4026.015 2985.155 L 4026.015 2985.565 M 4027.035 2982.375 L 4026.825 2982.375 L 4026.415 2982.175 L 4026.215 2981.965 L 4026.015 2981.555 L 4026.015 2980.745 L 4026.215 2980.335 L 4026.415 2980.125 L 4026.825 2979.925 L 4027.235 2979.925 L 4027.645 2980.125 L 4028.265 2980.535 L 4030.305 2982.585 L 4030.305 2979.715 M 4028.465 2978.365 L 4028.465 2974.685 M 4026.015 2970.885 L 4026.015 2972.925 L 4027.855 2973.135 L 4027.645 2972.925 L 4027.445 2972.315 L 4027.445 2971.695 L 4027.645 2971.085 L 4028.055 2970.675 L 4028.665 2970.475 L 4029.075 2970.475 L 4029.695 2970.675 L 4030.105 2971.085 L 4030.305 2971.695 L 4030.305 2972.315 L 4030.105 2972.925 L 4029.895 2973.135 L 4029.485 2973.335 M 4026.015 2967.895 L 4026.215 2968.505 L 4026.825 2968.915 L 4027.855 2969.125 L 4028.465 2969.125 L 4029.485 2968.915 L 4030.105 2968.505 L 4030.305 2967.895 L 4030.305 2967.485 L 4030.105 2966.875 L 4029.485 2966.465 L 4028.465 2966.255 L 4027.855 2966.255 L 4026.825 2966.465 L 4026.215 2966.875 L 4026.015 2967.485 L 4026.015 2967.895 M 4026.825 2964.905 L 4026.625 2964.495 L 4026.015 2963.885 L 4030.305 2963.885 M 4026.625 2960.085 L 4026.215 2960.285 L 4026.015 2960.895 L 4026.015 2961.305 L 4026.215 2961.925 L 4026.825 2962.335 L 4027.855 2962.535 L 4028.875 2962.535 L 4029.695 2962.335 L 4030.105 2961.925 L 4030.305 2961.305 L 4030.305 2961.105 L 4030.105 2960.495 L 4029.695 2960.085 L 4029.075 2959.875 L 4028.875 2959.875 L 4028.265 2960.085 L 4027.855 2960.495 L 4027.645 2961.105 L 4027.645 2961.305 L 4027.855 2961.925 L 4028.265 2962.335 L 4028.875 2962.535" fill="none"  stroke-width="0.6"  /></g><g c_partid="part_pcbtext" c_origin="4167.46,3011.37" c_rotation="90" c_mirror="" id="gge83" layerid="3" c_shapetype="group" ><path c_fontSize="4.5" c_fontFamily="" c_text="KEY1" d="M 4164.9998 3011.37 L 4169.2998 3011.37 M 4164.9998 3008.51 L 4167.8598 3011.37 M 4166.8398 3010.35 L 4169.2998 3008.51 M 4164.9998 3007.16 L 4169.2998 3007.16 M 4164.9998 3007.16 L 4164.9998 3004.5 M 4167.0498 3007.16 L 4167.0498 3005.52 M 4169.2998 3007.16 L 4169.2998 3004.5 M 4164.9998 3003.15 L 4167.0498 3001.51 L 4169.2998 3001.51 M 4164.9998 2999.87 L 4167.0498 3001.51 M 4165.8198 2998.52 L 4165.6098 2998.12 L 4164.9998 2997.5 L 4169.2998 2997.5" fill="none"  stroke-width="0.6" c_note="note_pre" /></g><g c_partid="part_pcbtext" c_origin="4128.47,3005" c_rotation="90" c_mirror="" id="gge84" layerid="3" c_shapetype="group" display="none"><path c_fontSize="4.5" c_fontFamily="" c_text="TS-1102-5016" d="M 4126.015 3003.565 L 4130.305 3003.565 M 4126.015 3004.995 L 4126.015 3002.135 M 4126.625 2997.925 L 4126.215 2998.335 L 4126.015 2998.945 L 4126.015 2999.765 L 4126.215 3000.375 L 4126.625 3000.785 L 4127.035 3000.785 L 4127.445 3000.585 L 4127.645 3000.375 L 4127.855 2999.965 L 4128.265 2998.745 L 4128.465 2998.335 L 4128.665 2998.125 L 4129.075 2997.925 L 4129.695 2997.925 L 4130.105 2998.335 L 4130.305 2998.945 L 4130.305 2999.765 L 4130.105 3000.375 L 4129.695 3000.785 M 4128.465 2996.575 L 4128.465 2992.895 M 4126.825 2991.545 L 4126.625 2991.135 L 4126.015 2990.515 L 4130.305 2990.515 M 4126.825 2989.165 L 4126.625 2988.755 L 4126.015 2988.145 L 4130.305 2988.145 M 4126.015 2985.565 L 4126.215 2986.185 L 4126.825 2986.595 L 4127.855 2986.795 L 4128.465 2986.795 L 4129.485 2986.595 L 4130.105 2986.185 L 4130.305 2985.565 L 4130.305 2985.155 L 4130.105 2984.545 L 4129.485 2984.135 L 4128.465 2983.935 L 4127.855 2983.935 L 4126.825 2984.135 L 4126.215 2984.545 L 4126.015 2985.155 L 4126.015 2985.565 M 4127.035 2982.375 L 4126.825 2982.375 L 4126.415 2982.175 L 4126.215 2981.965 L 4126.015 2981.555 L 4126.015 2980.745 L 4126.215 2980.335 L 4126.415 2980.125 L 4126.825 2979.925 L 4127.235 2979.925 L 4127.645 2980.125 L 4128.265 2980.535 L 4130.305 2982.585 L 4130.305 2979.715 M 4128.465 2978.365 L 4128.465 2974.685 M 4126.015 2970.885 L 4126.015 2972.925 L 4127.855 2973.135 L 4127.645 2972.925 L 4127.445 2972.315 L 4127.445 2971.695 L 4127.645 2971.085 L 4128.055 2970.675 L 4128.665 2970.475 L 4129.075 2970.475 L 4129.695 2970.675 L 4130.105 2971.085 L 4130.305 2971.695 L 4130.305 2972.315 L 4130.105 2972.925 L 4129.895 2973.135 L 4129.485 2973.335 M 4126.015 2967.895 L 4126.215 2968.505 L 4126.825 2968.915 L 4127.855 2969.125 L 4128.465 2969.125 L 4129.485 2968.915 L 4130.105 2968.505 L 4130.305 2967.895 L 4130.305 2967.485 L 4130.105 2966.875 L 4129.485 2966.465 L 4128.465 2966.255 L 4127.855 2966.255 L 4126.825 2966.465 L 4126.215 2966.875 L 4126.015 2967.485 L 4126.015 2967.895 M 4126.825 2964.905 L 4126.625 2964.495 L 4126.015 2963.885 L 4130.305 2963.885 M 4126.625 2960.085 L 4126.215 2960.285 L 4126.015 2960.895 L 4126.015 2961.305 L 4126.215 2961.925 L 4126.825 2962.335 L 4127.855 2962.535 L 4128.875 2962.535 L 4129.695 2962.335 L 4130.105 2961.925 L 4130.305 2961.305 L 4130.305 2961.105 L 4130.105 2960.495 L 4129.695 2960.085 L 4129.075 2959.875 L 4128.875 2959.875 L 4128.265 2960.085 L 4127.855 2960.495 L 4127.645 2961.105 L 4127.645 2961.305 L 4127.855 2961.925 L 4128.265 2962.335 L 4128.875 2962.535" fill="none"  stroke-width="0.6"  /></g><g c_partid="part_pcbtext" c_origin="4084.95,3009.58" c_rotation="90" c_mirror="" id="gge93" layerid="3" c_shapetype="group" ><path c_fontSize="4.5" c_fontFamily="" c_text="H2" d="M 4082.4999 3009.5801 L 4086.7899 3009.5801 M 4082.4999 3006.7201 L 4086.7899 3006.7201 M 4084.5399 3009.5801 L 4084.5399 3006.7201 M 4083.5199 3005.1601 L 4083.3099 3005.1601 L 4082.8999 3004.9601 L 4082.6999 3004.7501 L 4082.4999 3004.3401 L 4082.4999 3003.5301 L 4082.6999 3003.1201 L 4082.8999 3002.9101 L 4083.3099 3002.7101 L 4083.7199 3002.7101 L 4084.1299 3002.9101 L 4084.7499 3003.3201 L 4086.7899 3005.3701 L 4086.7899 3002.5001" fill="none"  stroke-width="0.6" c_note="note_pre" /></g><g c_partid="part_pcbtext" c_origin="4085,3042.48" c_rotation="180" c_mirror="" id="gge94" layerid="3" c_shapetype="group" display="none"><path c_fontSize="4.5" c_fontFamily="" c_text="A2541HWR-2P" d="M 4083.36 3044.9304L4085 3040.6404 M 4083.36 3044.9304L4081.73 3040.6404 M 4084.39 3042.0704L4082.34 3042.0704 M 4080.17 3043.9104L4080.17 3044.1204 L4079.97 3044.5304 L4079.76 3044.7304 L4079.35 3044.9304 L4078.54 3044.9304 L4078.13 3044.7304 L4077.92 3044.5304 L4077.72 3044.1204 L4077.72 3043.7104 L4077.92 3043.3004 L4078.33 3042.6804 L4080.38 3040.6404 L4077.51 3040.6404 M 4073.71 3044.9304L4075.75 3044.9304 L4075.96 3043.0904 L4075.75 3043.3004 L4075.14 3043.5004 L4074.53 3043.5004 L4073.91 3043.3004 L4073.5 3042.8904 L4073.3 3042.2804 L4073.3 3041.8704 L4073.5 3041.2504 L4073.91 3040.8404 L4074.53 3040.6404 L4075.14 3040.6404 L4075.75 3040.8404 L4075.96 3041.0504 L4076.16 3041.4604 M 4069.9 3044.9304L4071.95 3042.0704 L4068.88 3042.0704 M 4069.9 3044.9304L4069.9 3040.6404 M 4067.53 3044.1204L4067.12 3044.3204 L4066.51 3044.9304 L4066.51 3040.6404 M 4065.16 3044.9304L4065.16 3040.6404 M 4062.3 3044.9304L4062.3 3040.6404 M 4065.16 3042.8904L4062.3 3042.8904 M 4060.95 3044.9304L4059.92 3040.6404 M 4058.9 3044.9304L4059.92 3040.6404 M 4058.9 3044.9304L4057.88 3040.6404 M 4056.85 3044.9304L4057.88 3040.6404 M 4055.5 3044.9304L4055.5 3040.6404 M 4055.5 3044.9304L4053.66 3044.9304 L4053.05 3044.7304 L4052.85 3044.5304 L4052.64 3044.1204 L4052.64 3043.7104 L4052.85 3043.3004 L4053.05 3043.0904 L4053.66 3042.8904 L4055.5 3042.8904 M 4054.07 3042.8904L4052.64 3040.6404 M 4051.29 3042.4804L4047.61 3042.4804 M 4046.05 3043.9104L4046.05 3044.1204 L4045.85 3044.5304 L4045.65 3044.7304 L4045.24 3044.9304 L4044.42 3044.9304 L4044.01 3044.7304 L4043.8 3044.5304 L4043.6 3044.1204 L4043.6 3043.7104 L4043.8 3043.3004 L4044.21 3042.6804 L4046.26 3040.6404 L4043.4 3040.6404 M 4042.05 3044.9304L4042.05 3040.6404 M 4042.05 3044.9304L4040.2 3044.9304 L4039.59 3044.7304 L4039.39 3044.5304 L4039.18 3044.1204 L4039.18 3043.5004 L4039.39 3043.0904 L4039.59 3042.8904 L4040.2 3042.6804 L4042.05 3042.6804 " fill="none"  stroke-width="0.6"  /></g><g c_partid="part_pcbtext" c_origin="4114.95,3007.74" c_rotation="90" c_mirror="" id="gge102" layerid="3" c_shapetype="group" ><path c_fontSize="4.5" c_fontFamily="" c_text="H1" d="M 4112.4999 3007.74 L 4116.7899 3007.74 M 4112.4999 3004.88 L 4116.7899 3004.88 M 4114.5399 3007.74 L 4114.5399 3004.88 M 4113.3099 3003.53 L 4113.1099 3003.12 L 4112.4999 3002.5 L 4116.7899 3002.5" fill="none"  stroke-width="0.6" c_note="note_pre" /></g><g c_partid="part_pcbtext" c_origin="4115,3042.48" c_rotation="180" c_mirror="" id="gge103" layerid="3" c_shapetype="group" display="none"><path c_fontSize="4.5" c_fontFamily="" c_text="A2541HWR-2P" d="M 4113.36 3044.9304L4115 3040.6404 M 4113.36 3044.9304L4111.73 3040.6404 M 4114.39 3042.0704L4112.34 3042.0704 M 4110.17 3043.9104L4110.17 3044.1204 L4109.97 3044.5304 L4109.76 3044.7304 L4109.35 3044.9304 L4108.54 3044.9304 L4108.13 3044.7304 L4107.92 3044.5304 L4107.72 3044.1204 L4107.72 3043.7104 L4107.92 3043.3004 L4108.33 3042.6804 L4110.38 3040.6404 L4107.51 3040.6404 M 4103.71 3044.9304L4105.75 3044.9304 L4105.96 3043.0904 L4105.75 3043.3004 L4105.14 3043.5004 L4104.53 3043.5004 L4103.91 3043.3004 L4103.5 3042.8904 L4103.3 3042.2804 L4103.3 3041.8704 L4103.5 3041.2504 L4103.91 3040.8404 L4104.53 3040.6404 L4105.14 3040.6404 L4105.75 3040.8404 L4105.96 3041.0504 L4106.16 3041.4604 M 4099.9 3044.9304L4101.95 3042.0704 L4098.88 3042.0704 M 4099.9 3044.9304L4099.9 3040.6404 M 4097.53 3044.1204L4097.12 3044.3204 L4096.51 3044.9304 L4096.51 3040.6404 M 4095.16 3044.9304L4095.16 3040.6404 M 4092.3 3044.9304L4092.3 3040.6404 M 4095.16 3042.8904L4092.3 3042.8904 M 4090.95 3044.9304L4089.92 3040.6404 M 4088.9 3044.9304L4089.92 3040.6404 M 4088.9 3044.9304L4087.88 3040.6404 M 4086.85 3044.9304L4087.88 3040.6404 M 4085.5 3044.9304L4085.5 3040.6404 M 4085.5 3044.9304L4083.66 3044.9304 L4083.05 3044.7304 L4082.85 3044.5304 L4082.64 3044.1204 L4082.64 3043.7104 L4082.85 3043.3004 L4083.05 3043.0904 L4083.66 3042.8904 L4085.5 3042.8904 M 4084.07 3042.8904L4082.64 3040.6404 M 4081.29 3042.4804L4077.61 3042.4804 M 4076.05 3043.9104L4076.05 3044.1204 L4075.85 3044.5304 L4075.65 3044.7304 L4075.24 3044.9304 L4074.42 3044.9304 L4074.01 3044.7304 L4073.8 3044.5304 L4073.6 3044.1204 L4073.6 3043.7104 L4073.8 3043.3004 L4074.21 3042.6804 L4076.26 3040.6404 L4073.4 3040.6404 M 4072.05 3044.9304L4072.05 3040.6404 M 4072.05 3044.9304L4070.2 3044.9304 L4069.59 3044.7304 L4069.39 3044.5304 L4069.18 3044.1204 L4069.18 3043.5004 L4069.39 3043.0904 L4069.59 3042.8904 L4070.2 3042.6804 L4072.05 3042.6804 " fill="none"  stroke-width="0.6"  /></g><g c_partid="part_pcbtext" c_origin="4107.5,3137.5" c_rotation="90" c_mirror="" id="gge111" layerid="3" c_shapetype="group" ><path c_fontSize="4.5" c_fontFamily="" c_text="R4" d="M 4105.05 3137.5 L 4109.34 3137.5 M 4105.05 3137.5 L 4105.05 3135.66 L 4105.25 3135.05 L 4105.45 3134.84 L 4105.86 3134.64 L 4106.27 3134.64 L 4106.68 3134.84 L 4106.89 3135.05 L 4107.09 3135.66 L 4107.09 3137.5 M 4107.09 3136.07 L 4109.34 3134.64 M 4105.05 3131.24 L 4107.91 3133.29 L 4107.91 3130.22 M 4105.05 3131.24 L 4109.34 3131.24" fill="none"  stroke-width="0.6" c_note="note_pre" /></g><g c_partid="part_pcbtext" c_origin="4087.56,3130" c_rotation="90" c_mirror="" id="gge112" layerid="3" c_shapetype="group" display="none"><path c_fontSize="4.5" c_fontFamily="" c_text="200" d="M 4086.13 3129.8 L 4085.92 3129.8 L 4085.51 3129.59 L 4085.31 3129.39 L 4085.11 3128.98 L 4085.11 3128.16 L 4085.31 3127.75 L 4085.51 3127.55 L 4085.92 3127.34 L 4086.33 3127.34 L 4086.74 3127.55 L 4087.36 3127.95 L 4089.4 3130 L 4089.4 3127.14 M 4085.11 3124.56 L 4085.31 3125.17 L 4085.92 3125.58 L 4086.95 3125.79 L 4087.56 3125.79 L 4088.58 3125.58 L 4089.2 3125.17 L 4089.4 3124.56 L 4089.4 3124.15 L 4089.2 3123.54 L 4088.58 3123.13 L 4087.56 3122.92 L 4086.95 3122.92 L 4085.92 3123.13 L 4085.31 3123.54 L 4085.11 3124.15 L 4085.11 3124.56 M 4085.11 3120.35 L 4085.31 3120.96 L 4085.92 3121.37 L 4086.95 3121.57 L 4087.56 3121.57 L 4088.58 3121.37 L 4089.2 3120.96 L 4089.4 3120.35 L 4089.4 3119.94 L 4089.2 3119.32 L 4088.58 3118.91 L 4087.56 3118.71 L 4086.95 3118.71 L 4085.92 3118.91 L 4085.31 3119.32 L 4085.11 3119.94 L 4085.11 3120.35" fill="none"  stroke-width="0.6"  /></g><g c_partid="part_pcbtext" c_origin="4087.5,3137.5" c_rotation="90" c_mirror="" id="gge124" layerid="3" c_shapetype="group" ><path c_fontSize="4.5" c_fontFamily="" c_text="R5" d="M 4085.05 3137.5 L 4089.34 3137.5 M 4085.05 3137.5 L 4085.05 3135.66 L 4085.25 3135.05 L 4085.45 3134.84 L 4085.86 3134.64 L 4086.27 3134.64 L 4086.68 3134.84 L 4086.89 3135.05 L 4087.09 3135.66 L 4087.09 3137.5 M 4087.09 3136.07 L 4089.34 3134.64 M 4085.05 3130.83 L 4085.05 3132.88 L 4086.89 3133.08 L 4086.68 3132.88 L 4086.48 3132.26 L 4086.48 3131.65 L 4086.68 3131.04 L 4087.09 3130.63 L 4087.7 3130.42 L 4088.11 3130.42 L 4088.73 3130.63 L 4089.14 3131.04 L 4089.34 3131.65 L 4089.34 3132.26 L 4089.14 3132.88 L 4088.93 3133.08 L 4088.52 3133.29" fill="none"  stroke-width="0.6" c_note="note_pre" /></g><g c_partid="part_pcbtext" c_origin="4067.56,3130" c_rotation="90" c_mirror="" id="gge125" layerid="3" c_shapetype="group" display="none"><path c_fontSize="4.5" c_fontFamily="" c_text="10k" d="M 4065.92 3130 L 4065.72 3129.59 L 4065.11 3128.98 L 4069.4 3128.98 M 4065.11 3126.4 L 4065.31 3127.01 L 4065.92 3127.42 L 4066.95 3127.63 L 4067.56 3127.63 L 4068.58 3127.42 L 4069.2 3127.01 L 4069.4 3126.4 L 4069.4 3125.99 L 4069.2 3125.38 L 4068.58 3124.97 L 4067.56 3124.76 L 4066.95 3124.76 L 4065.92 3124.97 L 4065.31 3125.38 L 4065.11 3125.99 L 4065.11 3126.4 M 4065.11 3123.41 L 4069.4 3123.41 M 4066.54 3121.37 L 4068.58 3123.41 M 4067.76 3122.6 L 4069.4 3121.16" fill="none"  stroke-width="0.6"  /></g><g c_partid="part_pcbtext" c_origin="4067.5,3137.5" c_rotation="90" c_mirror="" id="gge137" layerid="3" c_shapetype="group" ><path c_fontSize="4.5" c_fontFamily="" c_text="R6" d="M 4065.05 3137.5 L 4069.34 3137.5 M 4065.05 3137.5 L 4065.05 3135.66 L 4065.25 3135.05 L 4065.45 3134.84 L 4065.86 3134.64 L 4066.27 3134.64 L 4066.68 3134.84 L 4066.89 3135.05 L 4067.09 3135.66 L 4067.09 3137.5 M 4067.09 3136.07 L 4069.34 3134.64 M 4065.66 3130.83 L 4065.25 3131.04 L 4065.05 3131.65 L 4065.05 3132.06 L 4065.25 3132.67 L 4065.86 3133.08 L 4066.89 3133.29 L 4067.91 3133.29 L 4068.73 3133.08 L 4069.14 3132.67 L 4069.34 3132.06 L 4069.34 3131.85 L 4069.14 3131.24 L 4068.73 3130.83 L 4068.11 3130.63 L 4067.91 3130.63 L 4067.3 3130.83 L 4066.89 3131.24 L 4066.68 3131.85 L 4066.68 3132.06 L 4066.89 3132.67 L 4067.3 3133.08 L 4067.91 3133.29" fill="none"  stroke-width="0.6" c_note="note_pre" /></g><g c_partid="part_pcbtext" c_origin="4047.56,3130" c_rotation="90" c_mirror="" id="gge138" layerid="3" c_shapetype="group" display="none"><path c_fontSize="4.5" c_fontFamily="" c_text="4.7k" d="M 4045.11 3127.95L4047.97 3130 L4047.97 3126.93 M 4045.11 3127.95L4049.4 3127.95 M 4048.38 3125.38L4048.58 3125.58 L4048.79 3125.38 L4048.58 3125.17 L4048.38 3125.38 M 4045.11 3120.96L4049.4 3123 M 4045.11 3123.82L4045.11 3120.96 M 4045.11 3119.61L4049.4 3119.61 M 4046.54 3117.56L4048.58 3119.61 M 4047.76 3118.79L4049.4 3117.36 " fill="none"  stroke-width="0.6"  /></g><g c_partid="part_pcbtext" c_origin="4100,3072.16" c_rotation="0" c_mirror="" id="gge150" layerid="3" c_shapetype="group" display="none"><path c_fontSize="4.5" c_fontFamily="" c_text="U3" d="M 4100 3069.71 L 4100 3072.77 L 4100.2 3073.39 L 4100.61 3073.8 L 4101.23 3074 L 4101.64 3074 L 4102.25 3073.8 L 4102.66 3073.39 L 4102.86 3072.77 L 4102.86 3069.71 M 4104.62 3069.71 L 4106.87 3069.71 L 4105.65 3071.34 L 4106.26 3071.34 L 4106.67 3071.55 L 4106.87 3071.75 L 4107.08 3072.36 L 4107.08 3072.77 L 4106.87 3073.39 L 4106.46 3073.8 L 4105.85 3074 L 4105.24 3074 L 4104.62 3073.8 L 4104.42 3073.59 L 4104.21 3073.18" fill="none"  stroke-width="0.6" c_note="note_pre" /></g><g c_partid="part_pcbtext" c_origin="4100,3066.66" c_rotation="0" c_mirror="" id="gge151" layerid="3" c_shapetype="group" display="none"><path c_fontSize="4.5" c_fontFamily="" c_text="ADAFRUIT_FT232H_BREAKOUT" d="M 4101.64 3064.21L4100 3068.5 M 4101.64 3064.21L4103.27 3068.5 M 4100.61 3067.07L4102.66 3067.07 M 4104.62 3064.21L4104.62 3068.5 M 4104.62 3064.21L4106.05 3064.21 L4106.67 3064.41 L4107.08 3064.82 L4107.28 3065.23 L4107.49 3065.84 L4107.49 3066.86 L4107.28 3067.48 L4107.08 3067.89 L4106.67 3068.3 L4106.05 3068.5 L4104.62 3068.5 M 4110.47 3064.21L4108.84 3068.5 M 4110.47 3064.21L4112.11 3068.5 M 4109.45 3067.07L4111.5 3067.07 M 4113.46 3064.21L4113.46 3068.5 M 4113.46 3064.21L4116.12 3064.21 M 4113.46 3066.25L4115.1 3066.25 M 4117.47 3064.21L4117.47 3068.5 M 4117.47 3064.21L4119.31 3064.21 L4119.92 3064.41 L4120.13 3064.61 L4120.33 3065.02 L4120.33 3065.43 L4120.13 3065.84 L4119.92 3066.05 L4119.31 3066.25 L4117.47 3066.25 M 4118.9 3066.25L4120.33 3068.5 M 4121.68 3064.21L4121.68 3067.27 L4121.89 3067.89 L4122.3 3068.3 L4122.91 3068.5 L4123.32 3068.5 L4123.93 3068.3 L4124.34 3067.89 L4124.55 3067.27 L4124.55 3064.21 M 4125.9 3064.21L4125.9 3068.5 M 4128.68 3064.21L4128.68 3068.5 M 4127.25 3064.21L4130.11 3064.21 M 4131.46 3069.93L4135.14 3069.93 M 4136.49 3064.21L4136.49 3068.5 M 4136.49 3064.21L4139.15 3064.21 M 4136.49 3066.25L4138.13 3066.25 M 4141.93 3064.21L4141.93 3068.5 M 4140.5 3064.21L4143.36 3064.21 M 4144.92 3065.23L4144.92 3065.02 L4145.12 3064.61 L4145.33 3064.41 L4145.74 3064.21 L4146.55 3064.21 L4146.96 3064.41 L4147.17 3064.61 L4147.37 3065.02 L4147.37 3065.43 L4147.17 3065.84 L4146.76 3066.46 L4144.71 3068.5 L4147.58 3068.5 M 4149.34 3064.21L4151.59 3064.21 L4150.36 3065.84 L4150.97 3065.84 L4151.38 3066.05 L4151.59 3066.25 L4151.79 3066.86 L4151.79 3067.27 L4151.59 3067.89 L4151.18 3068.3 L4150.56 3068.5 L4149.95 3068.5 L4149.34 3068.3 L4149.13 3068.09 L4148.93 3067.68 M 4153.35 3065.23L4153.35 3065.02 L4153.55 3064.61 L4153.75 3064.41 L4154.16 3064.21 L4154.98 3064.21 L4155.39 3064.41 L4155.6 3064.61 L4155.8 3065.02 L4155.8 3065.43 L4155.6 3065.84 L4155.19 3066.46 L4153.14 3068.5 L4156 3068.5 M 4157.35 3064.21L4157.35 3068.5 M 4160.22 3064.21L4160.22 3068.5 M 4157.35 3066.25L4160.22 3066.25 M 4161.57 3069.93L4165.25 3069.93 M 4166.6 3064.21L4166.6 3068.5 M 4166.6 3064.21L4168.44 3064.21 L4169.05 3064.41 L4169.26 3064.61 L4169.46 3065.02 L4169.46 3065.43 L4169.26 3065.84 L4169.05 3066.05 L4168.44 3066.25 M 4166.6 3066.25L4168.44 3066.25 L4169.05 3066.46 L4169.26 3066.66 L4169.46 3067.07 L4169.46 3067.68 L4169.26 3068.09 L4169.05 3068.3 L4168.44 3068.5 L4166.6 3068.5 M 4170.81 3064.21L4170.81 3068.5 M 4170.81 3064.21L4172.65 3064.21 L4173.27 3064.41 L4173.47 3064.61 L4173.68 3065.02 L4173.68 3065.43 L4173.47 3065.84 L4173.27 3066.05 L4172.65 3066.25 L4170.81 3066.25 M 4172.25 3066.25L4173.68 3068.5 M 4175.03 3064.21L4175.03 3068.5 M 4175.03 3064.21L4177.69 3064.21 M 4175.03 3066.25L4176.66 3066.25 M 4175.03 3068.5L4177.69 3068.5 M 4180.67 3064.21L4179.04 3068.5 M 4180.67 3064.21L4182.31 3068.5 M 4179.65 3067.07L4181.7 3067.07 M 4183.66 3064.21L4183.66 3068.5 M 4186.52 3064.21L4183.66 3067.07 M 4184.68 3066.05L4186.52 3068.5 M 4189.1 3064.21L4188.69 3064.41 L4188.28 3064.82 L4188.08 3065.23 L4187.87 3065.84 L4187.87 3066.86 L4188.08 3067.48 L4188.28 3067.89 L4188.69 3068.3 L4189.1 3068.5 L4189.92 3068.5 L4190.33 3068.3 L4190.74 3067.89 L4190.94 3067.48 L4191.15 3066.86 L4191.15 3065.84 L4190.94 3065.23 L4190.74 3064.82 L4190.33 3064.41 L4189.92 3064.21 L4189.1 3064.21 M 4192.5 3064.21L4192.5 3067.27 L4192.7 3067.89 L4193.11 3068.3 L4193.72 3068.5 L4194.13 3068.5 L4194.75 3068.3 L4195.15 3067.89 L4195.36 3067.27 L4195.36 3064.21 M 4198.14 3064.21L4198.14 3068.5 M 4196.71 3064.21L4199.57 3064.21 " fill="none"  stroke-width="0.6"  /></g><g c_partid="part_pcbtext" c_origin="4162.45,3052.74" c_rotation="90" c_mirror="" id="gge180" layerid="3" c_shapetype="group" ><path c_fontSize="4.5" c_fontFamily="" c_text="U1" d="M 4160.0002 3052.74 L 4163.0602 3052.74 L 4163.6802 3052.54 L 4164.0902 3052.13 L 4164.2902 3051.51 L 4164.2902 3051.1 L 4164.0902 3050.49 L 4163.6802 3050.08 L 4163.0602 3049.88 L 4160.0002 3049.88 M 4160.8102 3048.53 L 4160.6102 3048.12 L 4160.0002 3047.5 L 4164.2902 3047.5" fill="none"  stroke-width="0.6" c_note="note_pre" /></g><g c_partid="part_pcbtext" c_origin="4113.85,3050.5" c_rotation="90" c_mirror="" id="gge182" layerid="3" c_shapetype="group" display="none"><path c_fontSize="4.5" c_fontFamily="" c_text="4N35" d="M 4111.4 3048.45 L 4114.26 3050.5 L 4114.26 3047.43 M 4111.4 3048.45 L 4115.69 3048.45 M 4111.4 3046.08 L 4115.69 3046.08 M 4111.4 3046.08 L 4115.69 3043.22 M 4111.4 3043.22 L 4115.69 3043.22 M 4111.4 3041.46 L 4111.4 3039.21 L 4113.03 3040.44 L 4113.03 3039.82 L 4113.24 3039.41 L 4113.44 3039.21 L 4114.05 3039 L 4114.46 3039 L 4115.08 3039.21 L 4115.49 3039.62 L 4115.69 3040.23 L 4115.69 3040.85 L 4115.49 3041.46 L 4115.28 3041.66 L 4114.87 3041.87 M 4111.4 3035.2 L 4111.4 3037.25 L 4113.24 3037.45 L 4113.03 3037.25 L 4112.83 3036.63 L 4112.83 3036.02 L 4113.03 3035.4 L 4113.44 3035 L 4114.05 3034.79 L 4114.46 3034.79 L 4115.08 3035 L 4115.49 3035.4 L 4115.69 3036.02 L 4115.69 3036.63 L 4115.49 3037.25 L 4115.28 3037.45 L 4114.87 3037.65" fill="none"  stroke-width="0.6"  /></g><g c_partid="part_pcbtext" c_origin="4037.45,3052.08" c_rotation="90" c_mirror="" id="gge217" layerid="3" c_shapetype="group" ><path c_fontSize="4.5" c_fontFamily="" c_text="U2" d="M 4035 3052.0801 L 4038.06 3052.0801 L 4038.68 3051.8801 L 4039.09 3051.4701 L 4039.29 3050.8501 L 4039.29 3050.4401 L 4039.09 3049.8301 L 4038.68 3049.4201 L 4038.06 3049.2201 L 4035 3049.2201 M 4036.02 3047.6601 L 4035.81 3047.6601 L 4035.4 3047.4601 L 4035.2 3047.2501 L 4035 3046.8401 L 4035 3046.0301 L 4035.2 3045.6201 L 4035.4 3045.4101 L 4035.81 3045.2101 L 4036.22 3045.2101 L 4036.63 3045.4101 L 4037.25 3045.8201 L 4039.29 3047.8701 L 4039.29 3045.0001" fill="none"  stroke-width="0.6" c_note="note_pre" /></g><g c_partid="part_pcbtext" c_origin="4033.85,3050.5" c_rotation="90" c_mirror="" id="gge219" layerid="3" c_shapetype="group" display="none"><path c_fontSize="4.5" c_fontFamily="" c_text="4N35" d="M 4031.4 3048.45 L 4034.26 3050.5 L 4034.26 3047.43 M 4031.4 3048.45 L 4035.69 3048.45 M 4031.4 3046.08 L 4035.69 3046.08 M 4031.4 3046.08 L 4035.69 3043.22 M 4031.4 3043.22 L 4035.69 3043.22 M 4031.4 3041.46 L 4031.4 3039.21 L 4033.03 3040.44 L 4033.03 3039.82 L 4033.24 3039.41 L 4033.44 3039.21 L 4034.05 3039 L 4034.46 3039 L 4035.08 3039.21 L 4035.49 3039.62 L 4035.69 3040.23 L 4035.69 3040.85 L 4035.49 3041.46 L 4035.28 3041.66 L 4034.87 3041.87 M 4031.4 3035.2 L 4031.4 3037.25 L 4033.24 3037.45 L 4033.03 3037.25 L 4032.83 3036.63 L 4032.83 3036.02 L 4033.03 3035.4 L 4033.44 3035 L 4034.05 3034.79 L 4034.46 3034.79 L 4035.08 3035 L 4035.49 3035.4 L 4035.69 3036.02 L 4035.69 3036.63 L 4035.49 3037.25 L 4035.28 3037.45 L 4034.87 3037.65" fill="none"  stroke-width="0.6"  /></g><g c_partid="part_pcbtext" c_origin="4155,3192.5" c_rotation="90" c_mirror="" id="gge254" layerid="3" c_shapetype="group" ><path c_fontSize="4.5" c_fontFamily="" c_text="LED1" d="M 4152.5473 3192.5 L 4156.8373 3192.5 M 4156.8373 3192.5 L 4156.8373 3190.05 M 4152.5473 3188.7 L 4156.8373 3188.7 M 4152.5473 3188.7 L 4152.5473 3186.04 M 4154.5873 3188.7 L 4154.5873 3187.06 M 4156.8373 3188.7 L 4156.8373 3186.04 M 4152.5473 3184.69 L 4156.8373 3184.69 M 4152.5473 3184.69 L 4152.5473 3183.25 L 4152.7473 3182.64 L 4153.1573 3182.23 L 4153.5673 3182.03 L 4154.1773 3181.82 L 4155.2073 3181.82 L 4155.8173 3182.03 L 4156.2273 3182.23 L 4156.6373 3182.64 L 4156.8373 3183.25 L 4156.8373 3184.69 M 4153.3673 3180.47 L 4153.1573 3180.06 L 4152.5473 3179.45 L 4156.8373 3179.45" fill="none"  stroke-width="0.6" c_note="note_pre" /></g><g c_partid="part_pcbtext" c_origin="4140,3166.42" c_rotation="0" c_mirror="" id="gge256" layerid="3" c_shapetype="group" display="none"><path c_fontSize="4.5" c_fontFamily="" c_text="LED-5MM" d="M 4140 3163.968 L 4140 3168.258 M 4140 3168.258 L 4142.45 3168.258 M 4143.8 3163.968 L 4143.8 3168.258 M 4143.8 3163.968 L 4146.46 3163.968 M 4143.8 3166.008 L 4145.44 3166.008 M 4143.8 3168.258 L 4146.46 3168.258 M 4147.81 3163.968 L 4147.81 3168.258 M 4147.81 3163.968 L 4149.25 3163.968 L 4149.86 3164.168 L 4150.27 3164.578 L 4150.47 3164.988 L 4150.68 3165.598 L 4150.68 3166.628 L 4150.47 3167.238 L 4150.27 3167.648 L 4149.86 3168.058 L 4149.25 3168.258 L 4147.81 3168.258 M 4152.03 3166.418 L 4155.71 3166.418 M 4159.51 3163.968 L 4157.47 3163.968 L 4157.26 3165.808 L 4157.47 3165.598 L 4158.08 3165.398 L 4158.7 3165.398 L 4159.31 3165.598 L 4159.72 3166.008 L 4159.92 3166.628 L 4159.92 3167.038 L 4159.72 3167.648 L 4159.31 3168.058 L 4158.7 3168.258 L 4158.08 3168.258 L 4157.47 3168.058 L 4157.26 3167.848 L 4157.06 3167.448 M 4161.27 3163.968 L 4161.27 3168.258 M 4161.27 3163.968 L 4162.91 3168.258 M 4164.55 3163.968 L 4162.91 3168.258 M 4164.55 3163.968 L 4164.55 3168.258 M 4165.9 3163.968 L 4165.9 3168.258 M 4165.9 3163.968 L 4167.53 3168.258 M 4169.17 3163.968 L 4167.53 3168.258 M 4169.17 3163.968 L 4169.17 3168.258" fill="none"  stroke-width="0.6"  /></g><g c_partid="part_pcbtext" c_origin="4115,3192.5" c_rotation="90" c_mirror="" id="gge269" layerid="3" c_shapetype="group" ><path c_fontSize="4.5" c_fontFamily="" c_text="LED2" d="M 4112.5473 3192.5 L 4116.8373 3192.5 M 4116.8373 3192.5 L 4116.8373 3190.05 M 4112.5473 3188.7 L 4116.8373 3188.7 M 4112.5473 3188.7 L 4112.5473 3186.04 M 4114.5873 3188.7 L 4114.5873 3187.06 M 4116.8373 3188.7 L 4116.8373 3186.04 M 4112.5473 3184.69 L 4116.8373 3184.69 M 4112.5473 3184.69 L 4112.5473 3183.25 L 4112.7473 3182.64 L 4113.1573 3182.23 L 4113.5673 3182.03 L 4114.1773 3181.82 L 4115.2073 3181.82 L 4115.8173 3182.03 L 4116.2273 3182.23 L 4116.6373 3182.64 L 4116.8373 3183.25 L 4116.8373 3184.69 M 4113.5673 3180.27 L 4113.3673 3180.27 L 4112.9573 3180.06 L 4112.7473 3179.86 L 4112.5473 3179.45 L 4112.5473 3178.63 L 4112.7473 3178.22 L 4112.9573 3178.02 L 4113.3673 3177.81 L 4113.7773 3177.81 L 4114.1773 3178.02 L 4114.7973 3178.43 L 4116.8373 3180.47 L 4116.8373 3177.61" fill="none"  stroke-width="0.6" c_note="note_pre" /></g><g c_partid="part_pcbtext" c_origin="4100,3166.42" c_rotation="0" c_mirror="" id="gge271" layerid="3" c_shapetype="group" display="none"><path c_fontSize="4.5" c_fontFamily="" c_text="LED-5MM" d="M 4100 3163.968 L 4100 3168.258 M 4100 3168.258 L 4102.45 3168.258 M 4103.8 3163.968 L 4103.8 3168.258 M 4103.8 3163.968 L 4106.46 3163.968 M 4103.8 3166.008 L 4105.44 3166.008 M 4103.8 3168.258 L 4106.46 3168.258 M 4107.81 3163.968 L 4107.81 3168.258 M 4107.81 3163.968 L 4109.25 3163.968 L 4109.86 3164.168 L 4110.27 3164.578 L 4110.47 3164.988 L 4110.68 3165.598 L 4110.68 3166.628 L 4110.47 3167.238 L 4110.27 3167.648 L 4109.86 3168.058 L 4109.25 3168.258 L 4107.81 3168.258 M 4112.03 3166.418 L 4115.71 3166.418 M 4119.51 3163.968 L 4117.47 3163.968 L 4117.26 3165.808 L 4117.47 3165.598 L 4118.08 3165.398 L 4118.7 3165.398 L 4119.31 3165.598 L 4119.72 3166.008 L 4119.92 3166.628 L 4119.92 3167.038 L 4119.72 3167.648 L 4119.31 3168.058 L 4118.7 3168.258 L 4118.08 3168.258 L 4117.47 3168.058 L 4117.26 3167.848 L 4117.06 3167.448 M 4121.27 3163.968 L 4121.27 3168.258 M 4121.27 3163.968 L 4122.91 3168.258 M 4124.55 3163.968 L 4122.91 3168.258 M 4124.55 3163.968 L 4124.55 3168.258 M 4125.9 3163.968 L 4125.9 3168.258 M 4125.9 3163.968 L 4127.53 3168.258 M 4129.17 3163.968 L 4127.53 3168.258 M 4129.17 3163.968 L 4129.17 3168.258" fill="none"  stroke-width="0.6"  /></g><path d="M 4122.19 3052.5 A 2.5 2.5 0 0 0 4122.19 3047.5" c_shapetype="line" fill="none" stroke-width="0.7874" c_helper_type="arc2" net="" layerid="3" id="gge184" /><path d="M 4125.04 3056.69 A 1.1811 1.1811 0 1 0 4125.04 3056.67" c_shapetype="line" fill="none" stroke-width="2.3622" c_helper_type="arc2" net="" layerid="3" id="gge185" /><path d="M 4124.37 3064.96 A 0.5906 0.5906 0 1 0 4124.37 3064.95" c_shapetype="line" fill="none" stroke-width="1.1811" c_helper_type="arc2" net="" layerid="3" id="gge186" /><path d="M 4042.19 3052.5 A 2.5 2.5 0 0 0 4042.19 3047.5" c_shapetype="line" fill="none" stroke-width="0.7874" c_helper_type="arc2" net="" layerid="3" id="gge221" /><path d="M 4045.04 3056.69 A 1.1811 1.1811 0 1 0 4045.04 3056.67" c_shapetype="line" fill="none" stroke-width="2.3622" c_helper_type="arc2" net="" layerid="3" id="gge222" /><path d="M 4044.37 3064.96 A 0.5906 0.5906 0 1 0 4044.37 3064.95" c_shapetype="line" fill="none" stroke-width="1.1811" c_helper_type="arc2" net="" layerid="3" id="gge223" /><path d="M 4145.44 3193.668 A 10.23622 10.23622 0 1 0 4134.56 3193.668" c_shapetype="line" fill="none" stroke-width="1" c_helper_type="arc2" net="" layerid="3" id="gge258" /><path d="M 4105.44 3193.668 A 10.23622 10.23622 0 1 0 4094.56 3193.668" c_shapetype="line" fill="none" stroke-width="1" c_helper_type="arc2" net="" layerid="3" id="gge273" /><circle cx="4060.19" cy="3184.82" r="2.95" stroke-width="1" fill="none" layerid="3" id="gge66" c_shapetype="line" /><circle cx="4060.19" cy="3184.82" r="6.89" stroke-width="1" fill="none" layerid="3" id="gge67" c_shapetype="line" /><circle cx="4049.81" cy="3005.18" r="2.95" stroke-width="1" fill="none" layerid="3" id="gge76" c_shapetype="line" /><circle cx="4049.81" cy="3005.18" r="6.89" stroke-width="1" fill="none" layerid="3" id="gge77" c_shapetype="line" /><circle cx="4149.81" cy="3005.18" r="2.95" stroke-width="1" fill="none" layerid="3" id="gge86" c_shapetype="line" /><circle cx="4149.81" cy="3005.18" r="6.89" stroke-width="1" fill="none" layerid="3" id="gge87" c_shapetype="line" /><polyline points="4038.402 2980.5 4161.598 2980.5" stroke-width="1" c_shapetype="line" stroke-linecap="round" fill="none" layerid="10" net="" id="gge284" /><polyline points="4177 2995.902 4177 3188.697" stroke-width="1" c_shapetype="line" stroke-linecap="round" fill="none" layerid="10" net="" id="gge286" /><polyline points="4161.598 3204.098 4038.402 3204.098" stroke-width="1" c_shapetype="line" stroke-linecap="round" fill="none" layerid="10" net="" id="gge288" /><polyline points="4023 3188.697 4023 2995.902" stroke-width="1" c_shapetype="line" stroke-linecap="round" fill="none" layerid="10" net="" id="gge290" /><path d="M4161.5984 2980.5A15.4016 15.4016 0 0 1 4177 2995.9016" c_shapetype="line" fill="none" stroke-width="1" c_helper_type="arc2" net="" layerid="10" id="gge285" /><path d="M4177 3188.6969A15.4016 15.4016 0 0 1 4161.5984 3204.0984" c_shapetype="line" fill="none" stroke-width="1" c_helper_type="arc2" net="" layerid="10" id="gge287" /><path d="M4038.4016 3204.0984A15.4016 15.4016 0 0 1 4023 3188.6969" c_shapetype="line" fill="none" stroke-width="1" c_helper_type="arc2" net="" layerid="10" id="gge289" /><path d="M4023 2995.9016A15.4016 15.4016 0 0 1 4038.4016 2980.5" c_shapetype="line" fill="none" stroke-width="1" c_helper_type="arc2" net="" layerid="10" id="gge291" /></g></svg>